<svg width="60" height="48" viewBox="0 0 60 48" fill="none" xmlns="http://www.w3.org/2000/svg">
<path fill-rule="evenodd" clip-rule="evenodd" d="M28.2456 2.95464C28.0092 2.71828 27.6546 2.6001 27.1819 2.6001C26.7092 2.71828 14.0637 4.84555 8.86373 10.0456C5.2001 13.7092 4.96373 17.7274 5.55464 20.5637L9.92737 17.9637C10.5183 17.6092 11.1092 18.4365 10.6365 18.9092L6.26373 23.2819L2.95464 26.591C2.48192 27.0637 2.48192 27.7728 2.95464 28.2456C3.19101 28.4819 3.42737 28.6001 3.78192 28.6001C4.13646 28.6001 4.37282 28.4819 4.60919 28.2456L7.91828 24.9365C8.86373 25.4092 10.6365 26.0001 12.8819 26.0001C15.4819 26.0001 17.8456 25.1728 19.9728 23.5183C20.3274 23.2819 20.5637 22.691 20.3274 22.2183L18.6728 16.3092L22.9274 17.9637C23.5183 18.2001 24.2274 17.9637 24.4637 17.3728C26.9456 11.8183 28.4819 4.37282 28.6001 4.13646C28.6001 3.66373 28.4819 3.19101 28.2456 2.95464Z" fill="#7C37FA"/>
<path d="M59.8734 40.9669C55.7933 35.5901 47.9706 34.6054 36.6035 37.8828C22.6995 41.8917 15.7944 41.0256 9.66523 36.5722C9.33941 36.3355 8.85363 36.3723 8.58021 36.6544C8.3068 36.9365 8.34929 37.3571 8.67511 37.5938C15.1673 42.311 22.5455 43.2771 36.6427 39.2762L37.0902 39.1482C47.8705 36.04 54.9698 36.9336 58.5861 41.6993C58.8197 42.0071 59.2972 42.0926 59.6527 41.8904C60.0081 41.6882 60.107 41.2747 59.8734 40.9669Z" fill="#7C37FA"/>
<path d="M45.9874 42.0007C43.0507 42.1165 39.7227 42.7245 35.9995 43.8213L35.4894 43.9739C21.551 48.2055 14.6411 47.2929 8.4956 42.5912C8.1768 42.3473 7.68585 42.3694 7.39904 42.6405C7.11222 42.9116 7.13816 43.3291 7.45696 43.573C13.9793 48.5631 21.4053 49.5855 35.5756 45.349L36.0115 45.2177C39.806 44.0657 43.1567 43.4344 46.0593 43.3199C46.4877 43.303 46.8188 42.994 46.799 42.6297C46.7791 42.2655 46.4157 41.9838 45.9874 42.0007Z" fill="#7C37FA"/>
</svg>
