<svg width="265" height="283" viewBox="0 0 265 283" fill="none" xmlns="http://www.w3.org/2000/svg">
<circle r="3.5" transform="matrix(1 0 0 -1 82.2671 123.864)" fill="#2DE6EA"/>
<path fill-rule="evenodd" clip-rule="evenodd" d="M195.185 177.748C196.375 179.533 198.771 180.027 200.581 178.89L200.75 178.778C202.463 177.635 202.994 175.366 202 173.564L201.891 173.379L201.775 173.204C201.036 172.128 199.819 171.5 198.512 171.5C197.712 171.5 196.913 171.731 196.267 172.184C195.37 172.805 194.775 173.7 194.577 174.756C194.369 175.795 194.586 176.881 195.185 177.748ZM198.494 177.5C197.845 177.5 197.211 177.171 196.85 176.633C196.539 176.189 196.439 175.702 196.535 175.126C196.622 174.606 196.925 174.148 197.355 173.862C198.265 173.227 199.495 173.449 200.138 174.365C200.774 175.271 200.551 176.495 199.655 177.121C199.241 177.379 198.877 177.5 198.494 177.5Z" fill="#2DE6EA"/>
<path fill-rule="evenodd" clip-rule="evenodd" d="M179.302 121.494L179.393 121.472C179.576 121.449 179.742 121.372 179.85 121.268L179.909 121.203L179.951 121.132L190.425 107.526L190.368 107.757L190.419 107.656C190.425 107.641 190.431 107.627 190.438 107.611C190.479 107.51 190.502 107.407 190.502 107.302L190.493 107.198L190.47 107.11C190.446 106.928 190.364 106.763 190.253 106.655L190.184 106.597L190.11 106.555L176.138 96.5001H175.763C175.505 96.5001 175.227 96.605 175.095 96.7717L175.048 96.8467L164.664 110.168C164.423 110.515 164.437 111.026 164.745 111.303L164.836 111.372L178.969 121.428L178.753 121.378L178.856 121.426C178.871 121.432 178.885 121.437 178.901 121.443C179.001 121.481 179.1 121.502 179.201 121.501L179.302 121.494ZM179.051 119.315L166.715 110.476L175.948 98.6861L188.284 107.525L179.051 119.315Z" fill="#7C37FA"/>
<path fill-rule="evenodd" clip-rule="evenodd" d="M235.769 258.497L227.527 249.6C227.17 249.189 227.247 248.689 227.621 248.366L227.75 248.285L227.886 248.221C227.991 248.175 228.097 248.151 228.22 248.151C228.458 248.151 228.679 248.246 228.872 248.413L237.114 257.31C237.471 257.721 237.394 258.221 237.02 258.544L236.965 258.585C236.567 258.843 236.108 258.79 235.769 258.497Z" fill="#FFCC0A"/>
<path fill-rule="evenodd" clip-rule="evenodd" d="M252.43 162.739C252.032 162.29 252.11 161.79 252.484 161.467L262.793 154.356L262.853 154.321L263.014 154.244C263.12 154.199 263.226 154.174 263.348 154.174C263.587 154.174 263.807 154.269 264.001 154.436C264.398 154.886 264.321 155.386 263.947 155.709L253.626 162.828C253.228 163.085 252.769 163.032 252.43 162.739Z" fill="#7C37FA"/>
<path fill-rule="evenodd" clip-rule="evenodd" d="M-0.875175 253.444L-1.30285 253.287C-4.27621 252.175 -6.8815 250.767 -12.8399 247.262L-14.1109 246.516C-26.4234 239.324 -33.3462 236.426 -43.1245 235.535C-55.338 234.422 -68.3692 238.186 -81.8463 246.738C-82.2391 246.966 -82.7867 246.871 -83.051 246.528C-83.3487 246.141 -83.2164 245.561 -82.7941 245.32C-68.9944 236.572 -55.5875 232.703 -42.9264 233.837C-33.575 234.678 -25.8431 237.749 -15.3087 243.817L-10.6299 246.545C-5.18853 249.7 -2.95512 250.863 -0.209442 251.867C3.53645 253.236 6.60196 253.397 9.44305 252.219C12.0528 251.142 13.3388 249.657 15.1266 246.235L15.8956 244.739C18.1516 240.386 20.1892 238.222 24.402 236.855C28.0949 235.646 30.9266 235.769 36.3259 236.878L37.7684 237.178C43.2841 238.3 46.1478 238.307 50.0496 236.726C54.364 234.915 57.8985 232.327 58.7811 228.785C59.3697 226.339 58.6226 224.468 56.2287 221.155L55.7817 220.543L55.3097 219.905C52.744 216.385 52.0241 214.475 52.898 211.807C54.3435 207.451 60.8335 204.156 66.7317 204.209C69.7856 204.209 71.5939 205.126 74.3023 207.537L76.1118 209.176L76.2755 209.318C78.1014 210.901 79.7718 211.934 81.968 212.658C91.7447 215.906 106.403 211.408 109.908 204.163C110.632 202.65 110.695 201.603 110.404 199.585C110.003 197.087 110.099 195.525 111.145 193.179C113.653 187.725 119.854 183.412 126.663 182.358C127.863 182.202 128.999 182.118 130.038 182.118C135.894 182.118 141.929 184.395 146.34 187.693C149.667 190.329 151.477 193.278 151.242 195.815C151.049 197.947 149.985 198.966 146.639 200.785L145.321 201.496C143.713 202.374 142.83 202.908 141.769 203.674C139.878 205.041 138.311 206.627 136.998 208.633C135.37 211.1 134.926 212.671 134.686 215.713L134.578 217.146C134.562 217.338 134.547 217.498 134.529 217.661L134.516 217.785C134.279 219.92 133.686 221.527 132.268 223.319C130.061 226.088 127.042 227.764 122.976 228.858L122.519 228.978C121.267 229.296 120.328 229.486 118.372 229.831L116.517 230.155C111.79 230.991 109.983 231.695 109.307 233.353C108.427 235.555 110.091 239.263 113.681 242.776C117.882 246.888 123.316 249.492 127.128 248.728C129.15 248.335 130.052 247.294 131.915 243.607L132.642 242.164C133.701 240.086 134.385 238.91 135.468 237.37C140.358 230.377 148.674 224.062 158.337 220.02C158.772 219.832 159.262 219.953 159.504 220.371C159.764 220.822 159.593 221.338 159.107 221.548C149.706 225.501 141.628 231.627 136.99 238.317C135.929 239.848 135.19 241.131 134.159 243.159L133.393 244.673C131.37 248.605 130.195 249.877 127.541 250.41C123.032 251.297 116.969 248.468 112.388 244.007C108.468 240.204 106.322 235.9 107.626 232.784C108.596 230.465 110.536 229.573 115.553 228.667L118.713 228.12C119.551 227.971 120.114 227.86 120.788 227.714C125.437 226.708 128.556 225.186 130.781 222.371C131.757 221.103 132.266 219.947 132.52 218.597L132.573 218.299C132.637 217.903 132.681 217.496 132.73 216.884L132.783 216.185C132.95 212.709 133.45 210.687 135.349 207.76C136.739 205.626 138.384 203.939 140.353 202.495L140.849 202.138C141.814 201.459 142.665 200.957 144.384 200.014L146.205 199.028C146.38 198.931 146.525 198.849 146.671 198.764L146.849 198.659C148.519 197.668 149.236 196.862 149.327 195.729C149.522 193.867 147.937 191.341 145.083 189.095C140.328 185.379 133.363 183.14 126.979 184.141C120.738 185.103 115.059 189.039 112.868 193.915C111.968 195.882 111.891 197.068 112.205 199.448C112.544 201.792 112.473 203.065 111.564 204.928C107.66 212.991 91.9287 217.846 81.3821 214.309C78.349 213.315 76.5978 212.097 73.6882 209.43C70.9035 206.829 69.4498 205.995 66.7204 205.957C61.5354 205.909 55.8468 208.775 54.6587 212.355C53.9975 214.375 54.6552 215.99 56.9488 219.154L57.4972 219.904C60.4282 223.885 61.3532 226.073 60.5621 229.215C59.4858 233.447 55.3541 236.486 50.7458 238.31C46.3557 240.076 43.1608 240.036 37.0927 238.804L36.4029 238.662C30.8405 237.509 28.4019 237.36 24.9799 238.461C21.3725 239.676 19.6813 241.449 17.6149 245.346L17.1611 246.218L17.0705 246.342C16.9617 246.602 16.8611 246.796 16.7599 246.989C14.8917 250.551 13.3378 252.39 10.4434 253.63L10.1494 253.752C6.83488 255.118 3.28797 254.946 -0.875175 253.444Z" fill="#2DE6EA"/>
<path fill-rule="evenodd" clip-rule="evenodd" d="M78.5104 328.614L78.2065 328.994C77.9422 329.337 77.3946 329.432 77.0198 329.216C76.6018 328.975 76.4681 328.396 76.7654 328.01C80.4196 323.426 84.9092 320.074 90.3 318.887C94.0257 318.071 96.5884 318.404 101.004 319.821L102.861 320.408L102.959 320.437C106.35 321.456 108.687 321.631 111.679 320.767C115.545 319.616 117.344 317.908 120.096 313.497L121.001 312.041L121.506 311.251C124.085 307.295 126.211 305.206 130.048 303.475C131.146 302.978 132.276 302.585 133.439 302.291C137.984 301.14 142.174 301.438 148.675 302.844L150.529 303.256C156.955 304.662 158.979 304.777 160.39 303.346C162.322 301.406 161.229 298.092 157.012 290.528L155.624 288.031C153.817 284.739 152.961 282.936 152.303 280.925C151.248 277.697 151.37 275.198 152.962 273.368L153.193 273.113C155.532 270.651 158.779 270.785 167.926 272.597L169.592 272.928C180.233 274.992 185.46 275.004 190.942 271.949C196.999 268.575 201.405 261.101 202.149 252.917C202.678 246.729 200.932 241.624 197.369 238.898C193.172 235.657 185.29 234.513 180.143 236.804C178.741 237.427 177.811 238.136 176.613 239.375L175.926 240.105C173.992 242.197 172.85 243.024 170.633 243.483C166.353 244.342 160.399 242.177 157.115 238.162C154.107 234.461 154.405 230.136 157.733 220.552C157.87 220.194 158.221 219.982 158.584 219.982H158.8L158.906 219.993C159.396 220.099 159.688 220.568 159.551 221.042L159.246 221.943C156.389 230.488 156.191 234.116 158.646 237.107C161.33 240.37 166.453 242.588 170.324 241.802C172.061 241.435 172.892 240.819 174.597 238.958C176.187 237.168 177.424 236.137 179.409 235.237C185.147 232.663 193.846 233.923 198.572 237.542C202.634 240.717 204.616 246.378 204.01 253.055C203.239 261.724 198.505 269.693 191.916 273.384C188.424 275.325 184.387 276.087 179.653 275.933L178.88 275.901C176.181 275.765 173.492 275.372 169.615 274.632L167.571 274.234L166.716 274.065C158.916 272.546 156.038 272.516 154.366 274.445C152.346 276.755 153.393 280.32 157.427 287.63L158.9 290.274C160.907 293.896 161.785 295.698 162.431 297.68C163.392 300.628 163.24 302.866 161.701 304.465C159.713 306.48 157.414 306.457 150.868 305.013L148.801 304.556L147.698 304.321C142.309 303.202 138.775 302.923 135.005 303.631C133.537 303.907 132.133 304.341 130.783 304.948C127.109 306.592 125.266 308.506 122.569 312.813L121.772 314.106C118.772 318.965 116.637 321.048 112.172 322.336C108.324 323.46 105.79 323.131 100.851 321.536C96.4314 320.102 94.1356 319.761 90.6768 320.519C85.873 321.578 81.8103 324.549 78.5104 328.614Z" fill="#7C37FA"/>
<path fill-rule="evenodd" clip-rule="evenodd" d="M-175.941 292.774C-183.922 286.959 -185.105 275.879 -180.371 265.716C-176.11 256.542 -167.981 248.64 -157.38 243.342C-147.049 238.178 -135.326 236.06 -124.2 237.315L-123.52 237.396C-122.745 237.489 -121.934 237.607 -120.975 237.763L-117.606 238.335L-116.06 238.608C-109.438 239.754 -106.006 239.975 -102.049 239.226C-95.4692 237.983 -91.0018 234.671 -84.4196 227.202L-82.7533 225.282L-81.0177 223.266C-74.6662 215.943 -71.1679 212.811 -65.7755 210.384C-56.3661 206.171 -44.4458 206.981 -29.2935 212.828L-27.3986 213.578L-18.7529 217.104C-7.83511 221.531 -3.41577 222.662 6.64102 223.352L7.78622 223.429C12.7941 223.753 15.8936 223.781 19.3479 223.372C24.5135 222.761 28.299 221.171 30.4292 218.354C33.475 214.28 33.4085 207.859 29.9166 205.002C27.2466 202.833 24.1897 202.865 16.6198 204.491L14.0612 205.033L13.1801 205.21C6.70161 206.473 3.1089 206.378 0.144958 204.174C-2.55934 202.126 -2.92787 200.011 -2.36281 194.403L-2.32465 194.032C-1.56544 187.314 -1.80127 183.393 -4.12424 178.043C-8.01411 169.019 -15.9922 161.222 -25.0424 160.84C-30.9044 160.55 -37.3627 163.059 -38.1062 166.076C-38.6404 168.256 -36.8357 170.108 -31.1488 173.935L-29.7236 174.886C-22.8696 179.477 -20.5408 181.919 -21.0112 185.583C-21.6434 190.808 -30.0748 195.144 -44.7137 197.992L-45.669 198.173C-60.8056 200.949 -76.3879 199.78 -79.7981 193.384C-81.5723 190.076 -80.4791 187.196 -76.4001 181.564L-75.2147 179.946C-71.9188 175.397 -71.1557 173.605 -72.3023 172.004C-73.2242 170.702 -75.5786 169.764 -78.9773 169.402C-87.8082 168.472 -99.4389 171.642 -106.334 177.568C-109.304 180.101 -110.448 181.946 -112.144 186.084L-112.487 186.929C-114.073 190.76 -115.54 193.054 -118.694 196.083C-127.195 204.16 -140.551 209.475 -149.17 206.206C-155.741 203.748 -160.179 196.286 -161.061 186.36C-161.943 175.907 -158.507 166.371 -152.585 163.131C-150.532 161.988 -148.337 161.583 -145.246 161.569L-144.228 161.577L-142.599 161.619L-141.828 161.645C-137.346 161.779 -135.385 161.4 -133.665 159.703C-131.988 158.039 -131.777 156.477 -132.301 152.57L-132.423 151.669C-132.704 149.587 -132.791 148.514 -132.696 147.281L-132.676 147.048C-132.242 141.549 -128.393 135.89 -121.501 130.506L-121.075 130.176C-120.946 130.064 -120.719 129.98 -120.5 129.98L-120.402 129.986C-120.05 130.028 -119.828 130.3 -119.826 130.683L-119.829 130.724L-119.808 130.775C-119.702 131.107 -119.777 131.451 -120.065 131.7C-126.85 136.881 -130.612 142.29 -131.031 147.37C-131.118 148.726 -131.025 149.857 -130.71 152.176C-130.046 156.99 -130.248 158.932 -132.481 161.075C-134.737 163.272 -137.074 163.696 -142.399 163.521L-143.65 163.474C-147.65 163.338 -149.73 163.601 -151.834 164.756C-157.13 167.633 -160.268 176.502 -159.416 186.366C-158.62 195.685 -154.564 202.584 -148.655 204.802C-140.794 207.747 -128.151 202.659 -120.142 195.033C-117.005 192.011 -115.751 189.91 -113.989 185.611L-113.636 184.787C-111.96 180.94 -110.674 179.02 -107.69 176.436C-100.43 170.195 -88.2739 166.888 -78.9274 167.846C-75.0536 168.235 -72.1777 169.415 -70.9443 171.194C-69.1775 173.729 -70.1549 175.901 -74.3577 181.649L-74.8475 182.314C-78.7312 187.625 -79.7586 190.138 -78.3735 192.776C-75.4595 198.209 -59.941 199.285 -45.2283 196.449L-44.1608 196.234C-30.9689 193.522 -23.4615 189.663 -22.9221 185.502C-22.5869 182.891 -24.5981 180.7 -30.0455 176.944L-31.6259 175.872L-32.691 175.158C-38.8445 170.992 -40.7584 168.882 -39.9963 165.79C-39.0421 162.045 -32.2943 158.916 -25.1075 159.232C-15.2451 159.673 -6.77017 167.898 -2.5589 177.503C-0.272522 182.781 0.0702057 186.78 -0.515015 193.163L-0.626938 194.321L-0.730652 195.352C-1.16177 199.937 -0.83078 201.453 1.17506 202.951C3.82437 204.927 6.98521 204.85 14.3374 203.284L16.7966 202.758L17.6704 202.579C24.3833 201.238 28.0327 201.363 30.9848 203.809C35.1992 207.317 35.3265 214.778 31.7656 219.428C29.0479 223.006 24.2463 224.787 17.7567 225.275C14.9756 225.484 12.2783 225.456 8.75638 225.253L6.35678 225.099C-0.613129 224.627 -5.58939 223.717 -10.7462 222.049L-11.9249 221.656C-14.3235 220.839 -16.4293 220.003 -21.5352 217.902C-23.9094 216.898 -25.9414 216.062 -28.0506 215.231L-29.4727 214.676C-44.4468 208.776 -56.1005 207.897 -65.0944 211.951C-70.0243 214.155 -73.6841 217.41 -79.339 223.903L-81.6176 226.546C-89.4679 235.674 -94.228 239.492 -101.755 240.911C-106.093 241.707 -109.759 241.451 -116.966 240.211L-120.956 239.518C-121.295 239.461 -121.604 239.411 -121.917 239.362C-122.615 239.253 -123.253 239.163 -123.858 239.09C-134.751 237.697 -146.437 239.747 -156.608 244.844C-166.801 249.953 -174.656 257.601 -178.762 266.419C-183.146 275.907 -182.092 286.184 -174.866 291.451C-168.206 296.269 -158.992 296.309 -144.289 293.052L-143.928 292.999C-143.503 292.905 -143.022 293.129 -142.89 293.589L-142.867 293.69C-142.795 294.128 -143.079 294.539 -143.535 294.637L-143.878 294.689L-143.857 294.684C-159.17 298.075 -168.746 298.013 -175.941 292.774Z" fill="#FFCC0A"/>
<path fill-rule="evenodd" clip-rule="evenodd" d="M38.5666 183.047C36.4602 180.756 36.3781 177.539 37.9345 173.33L38.1056 172.877C39.1219 170.245 40.4785 167.739 43.2778 163.11L45.0202 160.243C50.077 151.861 51.3346 148.566 49.4772 146.958C48.4338 146.087 46.9622 146.204 42.9406 147.336L40.2091 148.105C34.5638 149.638 29.9814 150.193 24.6546 149.51C18.444 148.736 14.9126 146.928 10.0638 142.869L8.29736 141.379C4.21846 137.976 1.6722 136.499 -2.63252 135.603C-7.60593 134.564 -12.6915 135.076 -18.2406 136.927L-18.8787 137.144C-22.4653 138.387 -25.6032 139.879 -31.0673 142.797L-33.8357 144.281C-39.2349 147.161 -41.6992 148.323 -44.6318 149.251C-48.785 150.564 -52.2427 150.572 -55.3566 149.041C-58.3662 147.541 -59.8715 145.525 -61.7898 141.378L-62.269 140.338C-64.0206 136.603 -65.1439 135.353 -67.659 134.903C-70.0067 134.46 -71.4928 135.142 -74.9464 137.758L-75.7674 138.364C-78.9495 140.682 -80.9759 141.795 -84.1386 142.708C-94.9838 145.853 -109.806 141.336 -121.1 131.465C-121.491 131.127 -121.491 130.535 -121.098 130.195C-120.977 130.09 -120.808 130.015 -120.633 129.99L-120.501 129.98L-120.425 129.983L-120.324 129.994C-120.256 130.003 -120.23 130.003 -120.174 129.991L-119.928 129.938L-119.739 130.103C-108.893 139.585 -94.7346 143.944 -84.524 140.998C-81.3768 140.09 -79.4272 138.949 -75.9247 136.35L-74.5107 135.334C-74.2466 135.15 -74.0272 135.003 -73.7703 134.836C-71.425 133.315 -69.4922 132.747 -67.1574 133.17C-63.9338 133.76 -62.4508 135.415 -60.486 139.552L-60.1494 140.272L-59.8742 140.853C-58.1143 144.554 -56.8303 146.262 -54.3218 147.488C-51.6743 148.78 -48.6395 148.732 -44.856 147.503L-44.2593 147.303C-42.0233 146.533 -39.9367 145.559 -35.9984 143.491L-31.1813 140.931L-29.9941 140.307C-18.2647 134.207 -10.7592 132.083 -2.10487 133.875C2.73354 134.883 5.55685 136.539 9.97481 140.319L10.3938 140.679C15.6568 145.235 18.7566 146.964 24.9984 147.769C29.789 148.37 33.9666 147.916 39.1026 146.603L40.3356 146.277L42.8735 145.577C47.5164 144.32 49.1437 144.27 50.7805 145.687C52.396 147.086 52.4952 149.257 51.3729 152.268L51.2566 152.572C50.3584 154.861 49.1784 156.971 46.2048 161.838L45.109 163.636C44.4556 164.712 43.9412 165.573 43.4578 166.402L42.9968 167.201C38.7264 174.691 37.5622 179.229 40.0092 181.906C44.6448 187.06 62.7742 185.387 75.756 179.172C77.3498 178.461 78.8695 177.62 80.6804 176.484C81.0709 176.259 81.6185 176.353 81.8828 176.697C82.1801 177.083 82.0464 177.662 81.6284 177.903C80.0653 178.93 78.3689 179.878 76.5639 180.73C70.4706 183.62 62.7928 185.727 55.8359 186.417L55.0934 186.486C47.1185 187.2 41.242 186.004 38.5666 183.047Z" fill="#7C37FA"/>
<path fill-rule="evenodd" clip-rule="evenodd" d="M174.51 192.676C176.342 191.721 180.168 190 183.671 190C185.018 190 186.257 190.239 187.281 190.956C188.225 191.514 188.812 192.208 189.439 192.95C189.456 192.97 189.473 192.991 189.49 193.011C190.245 193.966 191.053 194.97 192.777 195.83C194.717 196.834 196.603 197.025 198.327 197.073C203.123 197.264 207.434 196.595 211.26 195.973L211.375 195.956C215.959 195.246 219.858 194.643 223.438 195.591C229.204 197.12 233.515 202.711 235.185 207.585C236.37 211.074 236.263 214.084 234.862 215.614C233.543 217.064 231.397 216.865 228.88 216.632C228.826 216.627 228.773 216.622 228.719 216.617C225.755 216.33 222.145 215.996 218.427 217.955C215.571 219.484 214.385 221.396 213.254 223.259C212.23 224.932 211.206 226.557 209.051 227.464C205.335 229.04 202.05 226.894 197.958 224.22L197.95 224.215L197.927 224.2C194.646 222.053 190.933 219.625 185.988 218.385C178.228 216.426 168.259 217.716 158.56 221.873C158.398 221.921 158.237 221.921 158.129 221.826C158.021 221.73 157.967 221.587 158.021 221.443C158.506 219.914 159.099 218.242 159.745 216.426L159.772 216.349C164.067 204.114 166.659 196.73 174.51 192.676ZM160.452 216.602C159.914 218.064 159.43 219.432 159 220.753C168.569 216.838 178.407 215.706 186.095 217.593C191.202 218.866 194.966 221.271 198.299 223.441L198.396 223.503C202.274 225.973 205.315 227.91 208.567 226.553C210.482 225.76 211.345 224.366 212.352 222.738L212.384 222.686C213.513 220.847 214.803 218.772 217.868 217.168C221.763 215.109 225.552 215.465 228.552 215.747L228.62 215.753C231.039 215.989 232.974 216.178 234.05 214.999C235.232 213.678 235.34 210.896 234.211 207.736C232.598 203.114 228.512 197.832 223.029 196.37C219.657 195.431 215.806 196.034 211.316 196.738L211.255 196.747C211.054 196.777 210.851 196.807 210.647 196.838C206.973 197.385 202.775 198.011 198.191 197.832C196.363 197.785 194.374 197.596 192.331 196.559C190.504 195.663 189.59 194.578 188.783 193.588C188.667 193.46 188.555 193.333 188.446 193.209C187.951 192.648 187.499 192.135 186.794 191.748C183.085 189.626 176.687 192.597 174.806 193.54C167.548 197.266 165.021 203.633 160.452 216.602Z" fill="#FFCA00"/>
<path fill-rule="evenodd" clip-rule="evenodd" d="M235.032 215.359C238.492 211.502 233.031 198.029 223.786 195.491C217.244 193.733 209.189 197.443 198.7 197.004C197.024 196.955 195.024 196.76 192.969 195.735C189.779 194.124 189.509 191.976 187.454 190.756C183.237 188.266 175.993 192.074 174.965 192.611C167.342 196.565 164.747 203.741 160.368 216.628C159.719 218.483 159.178 220.143 158.638 221.754C167.937 217.702 178.101 216.042 186.481 218.141C197.727 220.973 202.971 230.15 209.351 227.416C213.676 225.561 213.027 220.729 218.758 217.702C225.787 213.846 232.383 218.288 235.032 215.359Z" fill="#FFCC0A"/>
<path fill-rule="evenodd" clip-rule="evenodd" d="M115.332 282.635C116.954 278.329 117.116 273.555 115.332 269.343C111.601 260.497 99.9772 255.63 89.0561 255.677C78.189 255.723 67.8625 259.608 58.0226 263.633C48.1828 267.658 38.1807 271.964 27.3677 272.9C3.03836 275.006 -19.1284 259.842 -43.5117 258.157C-64.2187 256.706 -84.1147 265.084 -104.822 266.394C-116.229 267.096 -128.989 265.973 -137.693 272.385C-144.614 277.487 -146.344 286.239 -143.586 293.821C-133.314 291.574 -123.042 289.328 -112.769 287.034C-103.794 285.069 -94.3871 283.103 -85.4663 285.162C-73.4098 287.924 -65.0838 297.237 -54.5951 303.088C-41.241 310.529 -23.778 312.074 -8.9641 307.066C5.68756 302.152 17.7982 291.293 33.3689 289.749C54.6706 287.643 75.2694 303.602 95.9223 298.735C104.897 296.582 112.466 290.311 115.332 282.635Z" fill="#7C37FA"/>
<path fill-rule="evenodd" clip-rule="evenodd" d="M24.989 103.474C27.6382 95.7052 22.2857 86.8595 13.9056 83.3025C5.52553 79.7455 -5.01718 81.1028 -12.7485 85.6427C-23.1831 91.727 -31.7254 103.662 -44.1604 101.79C-48.7559 101.088 -52.5945 98.5134 -56.4872 96.3605C-69.571 89.106 -85.5202 85.7363 -101.037 86.9999C-115.31 88.17 -131.097 95.3308 -132.665 107.687C-133.314 112.835 -131.259 116.907 -129.259 120.417C-127.15 124.208 -124.123 127.765 -120.554 130.854C-109.201 122.196 -90.8727 115.503 -73.1393 114.801C-54.2165 114.052 -54.4328 118.685 -25.5079 121.774C-9.50459 123.459 8.44504 121.54 19.4743 111.384C21.9613 109.091 23.9617 106.423 24.989 103.474Z" fill="#2DE6EA"/>
<path fill-rule="evenodd" clip-rule="evenodd" d="M124.098 157.032L121.292 152.808C121.093 152.452 121.242 151.971 121.627 151.742L121.665 151.723L121.6 151.771C121.711 151.675 121.831 151.633 121.964 151.614L122.08 151.603L122.243 151.606C122.572 151.629 122.856 151.767 122.942 152.081L122.946 152.106L125.645 156.171C125.843 156.527 125.694 157.009 125.309 157.237L125.259 157.263C124.886 157.478 124.368 157.382 124.098 157.032Z" fill="#FFCC0A"/>
</svg>
