<svg width="374" height="328" viewBox="0 0 374 328" fill="none" xmlns="http://www.w3.org/2000/svg">
<path fill-rule="evenodd" clip-rule="evenodd" d="M39.2265 299.941C37.1261 299.941 35.4219 301.642 35.4219 303.741C35.4219 305.841 37.1261 307.542 39.2265 307.542C41.3268 307.542 43.0311 305.841 43.0311 303.741C43.0311 301.642 41.3268 299.941 39.2265 299.941ZM39.2265 301.518C40.4602 301.518 41.4587 302.514 41.4587 303.741C41.4587 304.969 40.4602 305.965 39.2265 305.965C37.9928 305.965 36.9943 304.969 36.9943 303.741C36.9943 302.514 37.9928 301.518 39.2265 301.518Z" fill="#0F0A39"/>
<ellipse cx="193.606" cy="276.75" rx="1.99921" ry="1.99498" fill="#7C37FA"/>
<path fill-rule="evenodd" clip-rule="evenodd" d="M16.1998 118.624C14.1378 118.624 12.4648 120.293 12.4648 122.354C12.4648 124.415 14.1378 126.084 16.1998 126.084C18.2618 126.084 19.9347 124.415 19.9347 122.354C19.9347 120.293 18.2618 118.624 16.1998 118.624ZM16.1998 120.217C17.3852 120.217 18.3449 121.174 18.3449 122.354C18.3449 123.534 17.3852 124.491 16.1998 124.491C15.0143 124.491 14.0547 123.534 14.0547 122.354C14.0547 121.174 15.0143 120.217 16.1998 120.217Z" fill="#0F0A39"/>
<ellipse cx="131.591" cy="17.0109" rx="2.94001" ry="2.9338" fill="#2DE6EA"/>
<ellipse cx="5.64482" cy="231.64" rx="5.64482" ry="5.6329" fill="#2DE6EA"/>
<path fill-rule="evenodd" clip-rule="evenodd" d="M326.886 24.3198C324.591 24.3198 322.729 26.1781 322.729 28.4723C322.729 30.7665 324.591 32.6248 326.886 32.6248C329.182 32.6248 331.044 30.7665 331.044 28.4723C331.044 26.1781 329.182 24.3198 326.886 24.3198ZM326.886 25.8966C328.315 25.8966 329.471 27.0507 329.471 28.4723C329.471 29.894 328.315 31.048 326.886 31.048C325.458 31.048 324.301 29.894 324.301 28.4723C324.301 27.0507 325.458 25.8966 326.886 25.8966Z" fill="#0F0A39"/>
<path fill-rule="evenodd" clip-rule="evenodd" d="M335.745 157.437C334.208 157.437 332.96 158.682 332.96 160.22C332.96 161.758 334.208 163.003 335.745 163.003C337.283 163.003 338.531 161.758 338.531 160.22C338.531 158.682 337.283 157.437 335.745 157.437ZM335.745 159.013C336.416 159.013 336.958 159.554 336.958 160.22C336.958 160.885 336.416 161.426 335.745 161.426C335.075 161.426 334.532 160.885 334.532 160.22C334.532 159.554 335.075 159.013 335.745 159.013Z" fill="#0F0A39"/>
<path fill-rule="evenodd" clip-rule="evenodd" d="M35.8997 28.5012L25.2835 39.0725C24.9715 39.3832 24.972 39.8889 25.2847 40.2002L35.9233 50.794C36.2341 51.1035 36.7361 51.104 37.0463 50.7952L47.6625 40.2239C47.9745 39.9132 47.974 39.4075 47.6613 39.0962L37.0227 28.5024C36.7119 28.1929 36.2099 28.1923 35.8997 28.5012ZM26.9734 39.6381L36.4624 30.1882L45.9714 39.6583L36.4824 49.1082L26.9734 39.6381Z" fill="#7C37FA"/>
<path fill-rule="evenodd" clip-rule="evenodd" d="M82.4113 253.135L75.3708 260.141C75.0619 260.448 75.0626 260.949 75.3723 261.257L82.4325 268.283C82.7401 268.589 83.2365 268.589 83.5432 268.284L90.5837 261.278C90.8925 260.971 90.8918 260.47 90.5821 260.162L83.5219 253.137C83.2144 252.831 82.718 252.83 82.4113 253.135ZM77.042 260.702L82.9682 254.804L88.9109 260.718L82.9847 266.615L77.042 260.702Z" fill="#FFCC0A"/>
<path fill-rule="evenodd" clip-rule="evenodd" d="M360.492 59.4902L366.978 53.0178L373.464 59.4902L366.978 65.9626L360.492 59.4902Z" fill="#2DE6EA"/>
<path fill-rule="evenodd" clip-rule="evenodd" d="M356.682 253.533L364.301 263.645C364.562 263.991 365.053 264.061 365.401 263.801L375.591 256.198C375.942 255.937 376.013 255.441 375.751 255.093L368.132 244.981C367.871 244.636 367.38 244.566 367.032 244.826L356.841 252.429C356.491 252.69 356.42 253.185 356.682 253.533ZM358.417 253.216L367.343 246.555L374.016 255.412L365.089 262.073L358.417 253.216Z" fill="#0F0A39"/>
<path fill-rule="evenodd" clip-rule="evenodd" d="M362.017 91.6179C362.291 91.2748 362.792 91.2198 363.134 91.4951C363.445 91.7454 363.519 92.1825 363.323 92.5178L363.257 92.615L357.337 100.008C357.063 100.351 356.562 100.406 356.22 100.131C355.909 99.8807 355.835 99.4436 356.031 99.1083L356.097 99.0111L362.017 91.6179Z" fill="#7C37FA"/>
<path fill-rule="evenodd" clip-rule="evenodd" d="M45.3285 175.926C45.6033 175.582 46.1036 175.527 46.446 175.803C46.7573 176.053 46.831 176.49 46.6354 176.825L46.5686 176.923L40.6494 184.316C40.3746 184.659 39.8743 184.714 39.5319 184.439C39.2206 184.188 39.1469 183.751 39.3425 183.416L39.4093 183.319L45.3285 175.926Z" fill="#7C37FA"/>
<path fill-rule="evenodd" clip-rule="evenodd" d="M202.913 0.693992C203.249 0.485521 203.68 0.560915 203.927 0.854437L203.996 0.948971L208.974 9.00714C209.203 9.37728 209.089 9.86324 208.72 10.0926C208.384 10.301 207.953 10.2256 207.706 9.93211L207.637 9.83758L202.659 1.7794C202.43 1.40927 202.544 0.923309 202.913 0.693992Z" fill="#0F0A39"/>
<path fill-rule="evenodd" clip-rule="evenodd" d="M159.752 253.562C160.022 253.273 160.457 253.234 160.772 253.453L160.863 253.527L167.762 260.02C168.079 260.318 168.094 260.817 167.797 261.134C167.527 261.423 167.091 261.462 166.777 261.243L166.686 261.17L159.787 254.676C159.47 254.378 159.454 253.879 159.752 253.562Z" fill="#0F0A39"/>
<path fill-rule="evenodd" clip-rule="evenodd" d="M365.485 130.112C367.992 133.203 364.036 144.001 357.339 146.036C352.6 147.444 346.765 144.471 339.167 144.823C337.953 144.862 336.504 145.019 335.016 145.84C332.705 147.131 332.509 148.853 331.021 149.831C327.966 151.826 322.718 148.775 321.974 148.344C316.452 145.175 314.572 139.424 311.4 129.095C310.93 127.608 310.538 126.278 310.146 124.987C316.883 128.234 324.246 129.564 330.316 127.882C338.462 125.613 342.261 118.257 346.882 120.448C350.016 121.935 349.546 125.808 353.697 128.234C358.788 131.325 363.566 127.765 365.485 130.112Z" fill="#2DE6EA"/>
<path fill-rule="evenodd" clip-rule="evenodd" d="M285.16 17.5888C286.335 21.4622 284.768 26.118 281.792 27.9569C277.21 30.7739 273.097 24.6704 265.343 25.2573C259.547 25.7268 257.588 29.5219 251.4 34.9994C247.327 29.0524 245.761 21.423 247.915 19.3103C249.795 17.4323 254.142 20.1319 256.453 17.5497C258.332 15.4369 256.531 12.5026 258.646 10.5072C260.408 8.86395 263.345 9.29432 264.873 9.48995C269.22 10.1159 269.729 12.5417 273.411 12.6591C276.387 12.7764 276.857 11.2114 279.285 11.6809C282.066 12.2678 284.337 14.9674 285.16 17.5888Z" fill="#7C37FA"/>
<path fill-rule="evenodd" clip-rule="evenodd" d="M278.776 73.3417C279.951 76.9412 280.068 80.9319 278.776 84.4531C276.074 91.8477 267.653 95.9167 259.742 95.8776C251.87 95.8385 244.39 92.5911 237.262 89.2264C230.134 85.8616 222.889 82.2621 215.056 81.4796C197.432 79.719 181.375 92.3955 163.712 93.804C148.712 95.0169 134.3 88.0135 119.3 86.918C111.036 86.3311 101.794 87.2701 95.4881 81.91C90.4751 77.6454 89.2218 70.329 91.2192 63.9908C98.6604 65.8688 106.102 67.7468 113.543 69.6639C120.044 71.3072 126.859 72.9504 133.321 71.2289C142.054 68.9206 148.085 61.1347 155.683 56.2441C165.357 50.0232 178.007 48.7321 188.738 52.9185C199.351 57.0266 208.124 66.1036 219.403 67.3947C234.834 69.1553 249.755 55.8137 264.716 59.8827C271.217 61.6824 276.7 66.9252 278.776 73.3417Z" fill="#FFCC0A"/>
<path fill-rule="evenodd" clip-rule="evenodd" d="M213.333 223.112C215.252 229.606 211.375 237.001 205.304 239.975C199.234 242.948 191.597 241.813 185.996 238.018C178.438 232.932 172.25 222.955 163.242 224.52C159.913 225.107 157.132 227.259 154.313 229.059C144.835 235.123 133.281 237.94 122.041 236.884C111.702 235.906 100.266 229.919 99.1304 219.59C98.6604 215.287 100.149 211.883 101.598 208.948C103.125 205.779 105.318 202.806 107.903 200.224C116.128 207.462 129.404 213.057 142.25 213.643C155.957 214.269 155.801 210.396 176.754 207.814C188.346 206.405 201.349 208.009 209.338 216.5C211.14 218.417 212.589 220.647 213.333 223.112Z" fill="#2DE6EA"/>
<path fill-rule="evenodd" clip-rule="evenodd" d="M193.238 98.2771C196.871 96.4728 199.836 96.1033 202.626 97.4272C204.892 98.4888 205.98 99.8849 207.401 102.975L207.951 104.205C209.483 107.647 210.708 109.181 213.38 110.197C215.55 111.019 217.388 110.981 220.447 110.289L221.59 110.019C226.19 108.91 228.55 108.795 231.715 110.192L232.024 110.332C232.392 110.495 232.812 110.702 233.31 110.984C234.051 111.402 234.784 111.887 235.478 112.443C237.41 113.989 238.757 115.839 239.214 118.01C239.771 120.566 239.147 122.395 237.185 125.528L236.172 127.135C234.921 129.197 234.533 130.565 234.971 132.082C235.823 135.027 239.857 137.415 243.561 137.377C245.197 137.364 246.255 136.815 247.676 135.415L247.903 135.186C248.043 135.044 248.944 134.095 249.331 133.702L249.405 133.626C250.901 132.128 252.28 131.14 254.13 130.427C261.929 127.424 273.344 131.565 276.182 138.336C276.73 139.654 276.849 140.71 276.719 142.145L276.653 142.757C276.646 142.815 276.638 142.886 276.626 142.978C276.39 144.934 276.443 145.918 277.087 147.541C278.689 151.562 282.766 154.858 287.22 155.661C294.585 156.983 303.633 150.797 303.244 146.06C303.165 145.073 302.628 144.4 301.297 143.509L300.098 142.749C299.682 142.489 299.313 142.261 299.264 142.229C298.338 141.64 297.595 141.114 296.87 140.508C295.386 139.267 294.149 137.811 293.121 135.977C291.806 133.632 291.436 132.073 291.266 129.284L291.196 128.083C291.178 127.816 291.159 127.609 291.133 127.383C290.977 126.037 290.607 124.976 289.79 123.791C288.328 121.654 286.296 120.4 283.398 119.567L282.698 119.376C282.243 119.256 281.918 119.181 281.187 119.032L279.438 118.683C275.372 117.878 273.735 117.143 272.975 115.042C270.916 109.274 281.144 98.7109 287.574 100.19C289.246 100.582 290.247 101.631 291.276 103.719L291.417 104.011C291.668 104.541 292.569 106.607 292.724 106.947C293.304 108.228 293.851 109.299 294.496 110.374C297.893 116.005 303.757 121.083 310.453 124.31C310.849 124.5 311.015 124.975 310.824 125.371C310.633 125.766 310.158 125.932 309.762 125.741C302.799 122.386 296.698 117.102 293.133 111.193C292.549 110.221 292.045 109.257 291.532 108.162L291.189 107.411C290.91 106.782 290.189 105.134 289.979 104.69C289.086 102.802 288.372 102.009 287.214 101.738C281.976 100.533 272.849 109.959 274.472 114.505C274.96 115.855 276.241 116.43 279.747 117.124L282.029 117.584C282.582 117.702 282.884 117.78 283.427 117.925C286.865 118.848 289.332 120.305 291.102 122.892C292.073 124.3 292.528 125.608 292.713 127.2L292.757 127.642C292.77 127.792 292.782 127.951 292.794 128.137L292.831 128.794C292.98 131.621 293.274 132.998 294.509 135.201C295.439 136.861 296.55 138.168 297.891 139.29C298.461 139.766 299.049 140.193 299.755 140.654L302.099 142.133L302.183 142.189C303.876 143.324 304.702 144.36 304.83 145.931C305.313 151.828 295.24 158.715 286.938 157.225C281.946 156.325 277.416 152.662 275.609 148.128C274.893 146.323 274.792 145.129 275.004 143.165L275.104 142.308C275.256 140.94 275.186 140.082 274.714 138.948C272.225 133.01 261.731 129.203 254.702 131.909C253.202 132.487 252.056 133.273 250.819 134.466L250.531 134.748C250.22 135.06 249.203 136.132 249.039 136.298C247.233 138.141 245.796 138.948 243.576 138.966C239.216 139.011 234.515 136.227 233.443 132.523C232.878 130.568 233.311 128.871 234.627 126.621L235.106 125.835L235.628 125.015C237.548 122.004 238.12 120.456 237.659 118.342C237.287 116.577 236.153 115.019 234.484 113.683C233.861 113.184 233.198 112.746 232.527 112.367C232.168 112.164 231.856 112.005 231.573 111.873L231.366 111.778C228.538 110.466 226.523 110.494 222.384 111.464L221.219 111.742C217.631 112.589 215.448 112.679 212.815 111.683C209.754 110.519 208.282 108.761 206.661 105.211L206.256 104.305C204.821 101.058 203.925 99.7906 201.948 98.8643C199.668 97.7826 197.184 98.0921 193.946 99.7L193.352 100.004C192.249 100.588 191.047 101.317 189.561 102.289L184.046 105.99L183.756 106.182C176.437 110.997 170.766 113.547 164.109 114.235C155.234 115.173 145.651 112.318 135.083 104.578C134.729 104.318 134.652 103.821 134.912 103.467C135.171 103.113 135.669 103.037 136.023 103.296C146.283 110.81 155.476 113.549 163.944 112.654C170.113 112.017 175.444 109.681 182.275 105.251L183.342 104.549C184.737 103.619 187.637 101.654 188.271 101.236C190.279 99.9077 191.801 98.9907 193.238 98.2771Z" fill="#FFCC0A"/>
<path fill-rule="evenodd" clip-rule="evenodd" d="M344.519 119.354C343.348 119.475 342.188 119.99 340.746 120.933L340.238 121.28C339.138 122.05 337.105 123.538 336.834 123.728C334.555 125.324 332.61 126.381 330.454 127.055L329.988 127.194C324.418 128.721 317.314 127.618 310.453 124.31C309.826 124.008 309.141 124.599 309.348 125.263L310.602 129.373L311.264 131.479C314.851 142.764 316.725 146.221 321.329 148.949L321.537 149.071C321.815 149.232 322.011 149.342 322.306 149.498C322.746 149.73 323.208 149.954 323.691 150.165C324.962 150.719 326.215 151.109 327.408 151.264C328.952 151.463 330.314 151.255 331.417 150.535C331.96 150.187 332.345 149.799 332.824 149.169L333.378 148.412C333.517 148.223 333.637 148.069 333.758 147.923C334.219 147.37 334.71 146.945 335.37 146.57C336.507 145.942 337.639 145.705 339.154 145.656C341.689 145.552 343.862 145.766 347.254 146.345L349.396 146.713C353.844 147.458 355.355 147.5 357.533 146.835C364.222 144.814 369.307 133.587 366.06 129.646C365.153 128.518 364.28 128.34 361.842 128.566L360.97 128.656C357.806 129.005 356.052 128.849 353.984 127.628C352.731 126.889 351.884 125.994 351.105 124.734C350.996 124.559 350.889 124.376 350.772 124.169L350.216 123.162C349.22 121.352 348.475 120.458 347.106 119.808C346.261 119.408 345.403 119.262 344.519 119.354ZM346.424 121.244C347.355 121.686 347.907 122.308 348.676 123.665L349.26 124.725L349.513 125.17C349.594 125.309 349.672 125.44 349.752 125.569C350.657 127.034 351.681 128.115 353.175 128.996C355.521 130.381 357.508 130.603 360.749 130.277L361.672 130.18C363.751 129.97 364.354 130.061 364.826 130.648C367.28 133.628 362.768 143.593 357.07 145.314L356.754 145.406C354.933 145.905 353.397 145.79 348.879 145.014L348.075 144.874C344.26 144.206 341.898 143.953 339.095 144.068C337.359 144.124 335.993 144.41 334.592 145.184C333.748 145.663 333.114 146.214 332.536 146.907C332.44 147.022 332.347 147.139 332.249 147.267L331.723 147.984C331.26 148.619 330.965 148.937 330.553 149.201C329.802 149.692 328.811 149.843 327.612 149.688C326.588 149.555 325.472 149.208 324.328 148.709C323.676 148.425 323.17 148.167 322.649 147.875L322.333 147.695C317.916 145.142 316.186 141.85 312.455 129.969L311.891 128.157L311.381 126.479L311.821 126.667C318.174 129.324 324.63 130.163 329.961 128.843L330.416 128.724C332.796 128.05 334.877 126.986 337.237 125.381L337.883 124.932C338.551 124.452 340.95 122.698 341.617 122.262C342.866 121.446 343.816 121.024 344.683 120.934C345.278 120.872 345.843 120.969 346.424 121.244Z" fill="#2DE6EA"/>
<path fill-rule="evenodd" clip-rule="evenodd" d="M250.913 34.3428C251.276 34.0955 251.771 34.189 252.018 34.5516C254.51 38.2021 257.61 40.7318 260.957 41.5847C263.276 42.1744 264.824 41.9556 267.762 40.9036L268.642 40.5827C271.874 39.4059 273.837 39.1626 276.56 40.075C279.765 41.1423 281.334 42.8554 283.457 46.7582L284.332 48.3885C286.064 51.5637 287.54 53.3085 290.071 54.6397C290.882 55.0626 291.719 55.384 292.585 55.6115C295.524 56.3839 298.291 56.1294 302.653 55.0275L305.664 54.2522C307.183 53.87 307.491 53.8333 308.369 53.7515C310.191 53.5819 311.54 53.9516 312.478 55.0674C314.415 57.3668 313.775 59.9719 310.46 66.9356L309.569 68.7856C306.488 75.1766 305.683 78.2437 307.141 80.182L307.281 80.3586C308.403 81.6855 310.098 81.6856 315.446 80.5282L318.293 79.8932C320.885 79.324 322.663 79.0292 324.551 78.904C328.327 78.6535 331.516 79.2742 334.271 81.0464C343.38 86.9075 346.306 104.703 339.107 111.105C335.596 114.213 329.238 115.224 325.016 113.055C323.85 112.452 322.989 111.713 322.102 110.669L321.777 110.277L321.243 109.611C320.245 108.379 319.594 107.868 318.47 107.607C315.717 106.986 312.066 108.771 310.168 111.48C308.34 114.042 308.56 117.111 310.832 124.881C310.955 125.302 310.713 125.743 310.291 125.866C309.87 125.99 309.428 125.748 309.305 125.327L308.924 123.998C306.877 116.712 306.775 113.498 308.868 110.563C311.106 107.369 315.379 105.28 318.825 106.058C320.279 106.395 321.171 107.047 322.271 108.358L323.118 109.406C323.186 109.489 323.25 109.565 323.314 109.64C324.078 110.539 324.786 111.147 325.745 111.643C329.363 113.501 335.017 112.602 338.051 109.917C344.408 104.263 341.686 87.7078 333.41 82.3824C330.975 80.816 328.118 80.2599 324.656 80.4896C322.863 80.6086 321.147 80.8933 318.621 81.4482L315.377 82.1786C312.867 82.7362 312.157 82.8425 310.878 82.9171C308.572 83.0515 306.921 82.5408 305.869 81.1354C303.945 78.5789 304.685 75.379 307.756 68.8907L308.82 66.6779C311.928 60.1834 312.606 57.6877 311.261 56.09L311.128 55.9416C310.256 55.0256 309.113 55.0487 305.194 56.0194L303.544 56.4395C298.65 57.7111 295.566 58.0379 292.181 57.1483C291.201 56.8909 290.253 56.5268 289.332 56.0472C286.577 54.5977 284.934 52.7245 283.15 49.5378L282.773 48.8496L282.254 47.8789L281.877 47.186C280.031 43.853 278.695 42.461 276.056 41.5821C273.843 40.8404 272.249 40.9956 269.545 41.9471L268.702 42.2531C265.229 43.5283 263.374 43.8391 260.564 43.1246C256.795 42.1639 253.396 39.3909 250.704 35.4468C250.457 35.0843 250.55 34.59 250.913 34.3428Z" fill="#FFCC0A"/>
<path fill-rule="evenodd" clip-rule="evenodd" d="M275.993 11.3906C275.048 11.7659 274.414 11.9049 273.403 11.865C272.218 11.8272 271.441 11.5735 270.363 10.9477L269.34 10.3244C267.872 9.43346 266.691 8.95454 264.947 8.70341C262.032 8.24343 259.891 8.36462 258.248 9.76242L258.061 9.9294C257.057 10.8759 256.759 11.7625 256.651 13.4937L256.618 14.2025C256.558 15.7046 256.399 16.3702 255.819 17.0217C255.155 17.7643 254.273 17.9999 252.749 17.9423L252.153 17.9085L251.716 17.8757C249.27 17.6862 248.298 17.785 247.319 18.7426C244.758 21.2547 246.496 29.2615 250.704 35.4459C250.973 35.8421 251.53 35.9116 251.889 35.5939L252.404 35.1261C254.345 33.3331 258.346 29.3839 259.274 28.6219C261.228 27.0161 262.976 26.2428 265.368 26.0491C267.91 25.8439 269.972 26.3084 272.867 27.5026L274.613 28.2373C277.881 29.5989 278.649 29.7402 280.361 29.3717C280.982 29.2382 281.582 28.9943 282.169 28.6334C285.508 26.571 287.183 21.51 285.88 17.3512C284.9 14.2273 282.344 11.514 279.408 10.903C278.409 10.7097 277.669 10.7811 276.789 11.0838L276.324 11.2586L275.993 11.3906ZM259.045 11.1903L259.149 11.0879C260.272 10.0408 261.985 9.88215 264.379 10.2248L264.71 10.2746C266.11 10.4763 267.06 10.8334 268.219 11.5072L269.26 12.141C270.702 13.0175 271.755 13.4023 273.346 13.4531L273.679 13.4607C274.651 13.4663 275.388 13.313 276.278 12.9836L277.089 12.6656C277.834 12.3805 278.329 12.3128 279.095 12.4609C281.402 12.9411 283.542 15.2133 284.362 17.8263C285.455 21.3142 284.031 25.6148 281.334 27.281C280.901 27.5476 280.468 27.7232 280.026 27.8183L279.786 27.8662C278.734 28.0577 278.01 27.9106 275.714 26.9725L273.93 26.2249C270.584 24.8026 268.219 24.2247 265.24 24.4652C262.505 24.6867 260.457 25.5929 258.263 27.3945L258.154 27.4863C257.084 28.4049 253.685 31.7464 251.737 33.5747L251.515 33.781L251.414 33.6202C248.037 28.1608 246.718 21.5593 248.433 19.8771C248.917 19.4029 249.571 19.3162 251.322 19.4399L252.162 19.502C252.237 19.507 252.308 19.5114 252.383 19.5156C254.515 19.6372 255.896 19.3197 257.006 18.0791C257.854 17.1265 258.106 16.217 258.193 14.5646L258.212 14.1306C258.275 12.4932 258.427 11.825 259.045 11.1903Z" fill="#7C37FA"/>
<path fill-rule="evenodd" clip-rule="evenodd" d="M180.821 30.3622L181.929 28.6361C184.714 24.3003 186.712 22.4856 190.505 21.9274C195.447 21.2168 200.828 23.5006 206.335 27.8363C208.304 29.3865 210.175 31.1146 211.9 32.9087L212.413 33.4497C213.327 34.4237 214.081 35.2912 214.575 35.9042C215.839 37.4462 216.854 38.8996 217.84 40.5108L219.703 43.6618C219.764 43.7644 219.816 43.848 219.853 43.9069C220.935 45.6209 221.86 46.4789 223.449 47.0907C227.557 48.6732 232.022 47.1722 239.618 42.4623L241.229 41.4477L242.63 40.5508C245.747 38.5562 248.384 36.5454 250.794 34.4052C251.122 34.1137 251.625 34.1432 251.917 34.4712C252.208 34.7992 252.179 35.3014 251.851 35.5929C249.57 37.6183 247.091 39.5305 244.216 41.4173L241.342 43.2584L240.439 43.824C232.428 48.7904 227.62 50.4004 222.877 48.5734C221.035 47.8641 219.885 46.8496 218.705 45.0604L218.508 44.755C218.191 44.2537 216.994 42.1901 216.556 41.4601L216.483 41.3395C215.652 39.9813 214.802 38.7439 213.786 37.4597L213.34 36.906C212.78 36.2116 211.865 35.1663 210.752 34.0095C209.075 32.2651 207.258 30.5856 205.351 29.0844C200.153 24.9923 195.143 22.866 190.734 23.4999C187.617 23.9587 185.931 25.4184 183.498 29.1389L182.254 31.0749L182.152 31.2315C179.475 35.3249 177.095 37.5513 173.082 38.8461C167.963 40.4968 164.038 39.8292 157.221 37.0851L154.891 36.1421C151.688 34.8648 150.371 34.4759 148.521 34.2745C146.454 34.0493 144.586 34.3706 142.739 35.3497C140.52 36.5187 139.179 38.0556 137.342 41.1796L136.354 42.9031C133.6 47.6863 131.67 49.6111 127.608 50.4488C126.03 50.7764 124.431 50.7899 122.307 50.5724L121.695 50.5053L118.715 50.1303C118.526 50.1084 118.351 50.0894 118.162 50.07C109.007 49.131 99.9996 52.1901 94.9345 58.4617C93.5824 60.1501 92.5361 62.1351 91.9021 64.2214C91.7746 64.6413 91.3304 64.8784 90.9102 64.7509C90.4899 64.6234 90.2526 64.1797 90.3802 63.7598C91.0729 61.4803 92.2142 59.315 93.6946 57.4664C99.0341 50.855 108.341 47.6116 117.825 48.4418L118.61 48.5194C118.797 48.5398 118.985 48.5614 119.199 48.5875L121.879 48.9268L122.023 48.9434C124.229 49.1939 125.793 49.2027 127.286 48.8928C130.778 48.1726 132.431 46.5287 134.971 42.1186L135.526 41.1435C137.735 37.2631 139.264 35.384 141.995 33.9451C144.132 32.8124 146.32 32.4362 148.694 32.6948L149.105 32.7433C151.191 33.0107 152.752 33.5494 156.92 35.2468L157.331 35.4147C164.132 38.1938 167.81 38.8761 172.593 37.3338C176.194 36.172 178.324 34.1798 180.821 30.3622Z" fill="#2DE6EA"/>
<path fill-rule="evenodd" clip-rule="evenodd" d="M155.648 55.2766L155.174 55.576C153.017 56.9644 151.312 58.2925 147.975 61.085L146.3 62.4852C140.613 67.2018 137.473 69.2315 133.343 70.3784L133.039 70.4608C127.812 71.8534 123.138 71.2896 113.659 68.8937L94.9634 64.1364L91.3356 63.2205C90.9253 63.1169 90.5057 63.3525 90.3809 63.7565C88.221 70.7474 89.8587 78.2315 94.9356 82.5169C99.0346 86.0014 103.647 87.0596 112.372 87.4148L116.288 87.5558C117.49 87.6031 118.293 87.6458 119.204 87.7105L119.874 87.7624C124.526 88.1446 128.54 88.9343 136.508 90.8506L141.284 91.9999L142.743 92.3395C151.583 94.3641 157.499 95.1003 163.737 94.5959L164.46 94.5335C170.567 93.9664 175.655 92.4408 185.913 88.5938L189.947 87.083L191.265 86.601C201.426 82.9242 207.917 81.5689 214.938 82.2702L215.659 82.3488C221.032 82.9838 225.635 84.664 234.085 88.6236L236.883 89.9447C246.849 94.6492 252.869 96.6382 259.699 96.6724C268.52 96.7157 276.812 92.0363 279.484 84.7256C280.798 81.1461 280.765 76.9936 279.493 73.0953C277.341 66.4029 271.663 60.9918 264.849 59.1167C263.758 58.8199 262.652 58.6079 261.525 58.4763L260.881 58.4076C255.451 57.8846 250.924 58.9152 241.431 62.1858L238.619 63.1583C229.426 66.299 224.91 67.2323 219.415 66.6053C214.311 66.021 210.2 64.1954 202.911 59.782L199.459 57.6708C194.871 54.8823 192.322 53.5091 189.257 52.2989L188.949 52.1784C178.167 47.9723 165.484 49.1694 155.648 55.2766ZM188.37 53.6586L188.965 53.8936C191.803 55.0378 194.279 56.3819 198.647 59.0373L201.065 60.5184C209.188 65.4982 213.595 67.5385 219.234 68.184L219.912 68.2543C225.407 68.7667 230.073 67.7564 239.106 64.6714L242.999 63.3287C251.905 60.3018 256.133 59.4462 261.34 60.0546C262.389 60.1771 263.417 60.3742 264.429 60.6493C270.725 62.3819 275.991 67.4008 277.98 73.5847C279.147 77.16 279.176 80.9483 277.99 84.1796C275.571 90.7987 267.908 95.1236 259.707 95.0834C253.455 95.0521 247.828 93.2795 238.788 89.0821L234.747 87.1783C225.769 82.9717 221.019 81.2808 215.096 80.689C207.783 79.9585 201.101 81.3525 190.739 85.1013L185.962 86.8778L184.192 87.5402C174.457 91.1601 169.618 92.5328 163.609 93.012C157.567 93.5006 151.785 92.7805 143.086 90.7877L139.191 89.8647L136.872 89.3037C128.445 87.2772 124.38 86.4952 119.319 86.1256L118.267 86.0579C117.844 86.0336 117.403 86.0119 116.893 85.9902L112.97 85.8477C104.236 85.5264 99.7889 84.5562 95.9642 81.3049L95.6998 81.0753C91.6147 77.4274 90.1359 71.3144 91.5847 65.3694L91.6918 64.9489L111.025 69.8569C111.762 70.0463 112.505 70.2372 113.266 70.4333L114.412 70.7198C123.398 72.9393 128.093 73.4229 133.447 71.9966C138.015 70.7892 141.308 68.6899 147.299 63.7222L150.031 61.4408C152.658 59.2647 154.182 58.1049 156.036 56.912C165.507 50.8212 177.891 49.5703 188.37 53.6586Z" fill="#FFCC0A"/>
<path fill-rule="evenodd" clip-rule="evenodd" d="M67.7561 64.8313C73.0085 60.402 79.6998 60.3701 90.6272 63.0449L91.1771 63.1809L91.2169 63.1957C91.6219 63.1963 91.9546 63.4952 92.0073 63.883L92.0145 63.9909C92.0145 64.4297 91.6585 64.7854 91.2193 64.7854L91.0968 64.7827C91.0163 64.7782 90.9382 64.7676 90.8607 64.7484L90.7387 64.7096L90.2472 64.588C79.9771 62.0749 73.7262 62.0598 69.0257 65.8448L68.7798 66.0476C63.5822 70.397 62.7767 78.9703 65.9917 86.9356C72.0838 102.131 89.3575 112.057 105.593 109.685L106.186 109.593C107.033 109.456 107.893 109.29 109.402 108.984L111.738 108.517L111.884 108.489C115.986 107.711 118.811 107.548 121.664 108.169C127.078 109.361 130.397 112.325 135.957 119.692L137.839 122.209C142.165 127.957 144.667 130.535 148.294 132.419C154.988 135.875 163.433 134.796 173.421 130.372L174.417 129.916C176.449 128.96 184.621 125.122 187.002 124.181L187.138 124.128C190.882 122.691 194.445 121.892 199.348 121.469L200.75 121.359L201.827 121.284C204.253 121.127 206.102 121.102 208.025 121.252C212.878 121.629 216.485 123.131 218.539 126.23C221.161 130.181 221.038 136.419 217.953 139.335C215.526 141.632 212.934 141.577 206.78 140.055L205.894 139.834C200.505 138.502 198.235 138.437 196.344 140.066L196.119 140.268C194.831 141.479 194.667 142.788 195.011 146.89L195.073 147.6C195.579 153.193 195.367 156.699 193.634 161.299C190.567 169.505 184.264 176.283 177.191 176.642C172.386 176.919 167.026 174.513 166.264 171.088C165.799 168.944 166.98 167.07 169.692 164.741L170.719 163.888L172.718 162.332C177.241 158.831 178.874 156.921 178.626 154.611C178.372 152.266 175.801 150.119 171.527 148.303C168.885 147.179 166.179 146.383 163.397 145.746L162.561 145.559C152.061 143.234 140.845 144.039 138.743 148.599C138.046 150.107 138.303 151.851 139.415 154.098L139.622 154.504C139.942 155.115 140.312 155.746 140.821 156.562L141.996 158.416C144.846 162.95 145.379 164.551 144.101 166.643C140.727 172.084 125.017 169.972 117.214 162.291C115.381 160.486 114.276 158.763 113.375 156.563L113.169 156.046C113.101 155.869 113.03 155.682 112.953 155.471L112.396 153.935C111.192 150.684 110.313 149.107 108.178 146.768C102.255 140.309 93.2055 136.257 87.6983 138.666C78.2137 142.787 77.1722 166.826 85.4157 172.007C86.5995 172.752 87.9303 173.05 89.7758 173.081L90.4258 173.082C90.653 173.079 90.8867 173.073 91.1923 173.063L91.8342 173.039C96.0065 172.879 97.7332 173.19 99.4497 175.124C100.994 176.854 101.209 178.372 100.831 181.935L100.643 183.619C100.511 184.896 100.483 185.689 100.55 186.594C100.838 190.824 103.659 195.414 108.467 199.626C108.797 199.916 108.83 200.418 108.54 200.748C108.251 201.078 107.748 201.11 107.418 200.821C102.323 196.357 99.2833 191.412 98.964 186.707C98.8886 185.699 98.9186 184.837 99.0577 183.486L99.2474 181.79C99.5805 178.665 99.4105 177.468 98.2612 176.18C97.0591 174.826 95.779 174.522 92.5843 174.605L90.7351 174.666C90.5838 174.669 90.4438 174.671 90.3005 174.672L90.1555 174.673C87.8384 174.678 86.1326 174.336 84.5687 173.352C75.2677 167.507 76.3792 141.851 87.0622 137.209C93.3475 134.46 103.021 138.791 109.352 145.696C111.655 148.218 112.617 149.953 113.889 153.389L114.516 155.112C114.633 155.428 114.735 155.689 114.847 155.961C115.67 157.971 116.659 159.514 118.331 161.159C125.506 168.223 140.039 170.177 142.746 165.81C143.593 164.425 143.021 162.983 140.239 158.612L139.644 157.678C138.897 156.494 138.421 155.673 137.99 154.803C136.685 152.168 136.361 149.964 137.298 147.934C139.831 142.44 151.367 141.543 162.464 143.912L162.902 144.007C166.065 144.694 169.131 145.557 172.15 146.84C176.912 148.865 179.871 151.335 180.208 154.441C180.534 157.483 178.772 159.621 174.028 163.327L171.586 165.231C171.392 165.388 171.23 165.523 171 165.716C168.509 167.804 167.506 169.314 167.817 170.747C168.368 173.224 172.978 175.293 177.105 175.055C183.402 174.736 189.274 168.421 192.145 160.741C193.72 156.56 193.959 153.347 193.537 148.291L193.427 147.022C193.017 142.142 193.273 140.6 195.307 138.861C197.696 136.803 200.23 136.824 205.866 138.19L207.891 138.689C212.949 139.894 215.081 139.864 216.859 138.181C219.333 135.844 219.438 130.461 217.213 127.108C215.484 124.499 212.315 123.179 207.901 122.836C206.066 122.693 204.279 122.717 201.918 122.87L200.118 123.001C195.248 123.379 191.779 124.103 188.198 125.427L187.708 125.611C185.286 126.541 174.761 131.513 174.614 131.579C163.991 136.385 154.916 137.627 147.562 133.829C143.566 131.753 140.915 128.976 136.252 122.745L135.346 121.527C129.602 113.81 126.442 110.848 121.324 109.722C118.841 109.181 116.319 109.296 112.684 109.957L111.301 110.221L108.47 110.792C107.373 111.008 106.662 111.133 105.825 111.257C88.8603 113.736 70.8807 103.404 64.5159 87.5282C61.0704 78.992 61.944 69.6951 67.7561 64.8313Z" fill="#7C37FA"/>
<path fill-rule="evenodd" clip-rule="evenodd" d="M107.376 199.666C104.67 202.41 102.455 205.459 100.922 208.6C98.7974 212.903 97.9629 215.866 98.3791 219.677C99.4604 229.474 109.845 236.524 122.006 237.675C133.152 238.726 144.657 236.003 154.229 230.074L155.34 229.367L156.346 228.707C159.623 226.552 161.31 225.679 163.421 225.302C168.006 224.506 171.43 226.339 177.644 231.953L180.296 234.378C182.598 236.464 183.949 237.572 185.591 238.677C191.665 242.764 199.548 243.659 205.69 240.69C212.282 237.461 216.157 229.592 214.134 222.883C213.398 220.445 211.946 218.114 209.958 215.995C202.542 208.116 190.368 205.357 176.694 207.065C172.652 207.563 169.181 208.133 166.038 208.79L165.37 208.932C161.954 209.671 153.918 211.926 154.042 211.895C150.386 212.8 147.182 213.111 142.326 212.889C130.064 212.291 116.851 207.005 108.468 199.628C108.151 199.349 107.672 199.366 107.376 199.666ZM107.992 201.316L108.314 201.587C116.99 208.8 130.057 213.882 142.251 214.476C147.053 214.696 150.336 214.406 153.951 213.552L154.449 213.431C154.941 213.291 162.475 211.184 165.706 210.485C168.977 209.778 172.605 209.17 176.89 208.642C190.11 206.991 201.792 209.638 208.798 217.083C210.628 219.034 211.952 221.158 212.611 223.341C214.4 229.274 210.909 236.364 204.993 239.261C199.39 241.97 192.103 241.144 186.48 237.359L186.076 237.083C184.678 236.111 183.407 235.052 181.348 233.186L179.45 231.447C172.412 224.987 168.58 222.793 163.145 223.738C160.837 224.149 159.061 225.039 155.849 227.133L153.924 228.389C144.542 234.368 133.163 237.131 122.155 236.093C110.662 235.005 100.943 228.407 99.9601 219.503C99.5844 216.063 100.346 213.359 102.35 209.3C103.624 206.689 105.402 204.136 107.561 201.779L107.992 201.316Z" fill="#2DE6EA"/>
<path fill-rule="evenodd" clip-rule="evenodd" d="M223.009 156.498C226.949 151.518 240.696 152.937 250.728 158.447C252.08 159.194 253.306 159.99 254.419 160.812C254.772 161.073 254.847 161.57 254.586 161.923C254.325 162.276 253.827 162.351 253.473 162.09C252.415 161.308 251.247 160.549 249.96 159.839C240.536 154.663 227.549 153.322 224.257 157.484C222.438 159.781 223.385 163.728 226.82 170.526L227.303 171.472L229.952 176.536C231.23 179.009 231.646 179.944 232.191 181.412C233.282 184.354 233.352 186.434 232.032 187.753C231.163 188.634 230.02 188.83 228.48 188.541C227.973 188.446 227.424 188.302 226.713 188.085L224.026 187.223C220.039 185.977 216.915 185.533 213.252 186.064C208.972 186.686 206.745 188.029 203.211 191.467L202.289 192.372L201.617 193.018C198.778 195.699 196.854 196.892 193.624 197.67C187.299 199.194 181.835 197.415 173.334 192.313L167.538 188.779C165.09 187.308 164.642 187.129 163.093 186.494C160.104 185.267 157.795 185.157 155.802 186.282C154.204 187.189 153.226 188.555 152.167 191.014L151.964 191.498L151.511 192.611L151.238 193.268C149.89 196.429 148.764 197.778 146.45 198.262C144.832 198.606 143.451 198.209 141.936 197.146L141.743 197.004C140.859 196.332 138.711 194.494 138.659 194.452C137.037 193.141 135.575 192.264 133.812 191.665C126.437 189.198 116.123 193.056 108.467 200.745C108.157 201.056 107.654 201.057 107.342 200.748C107.031 200.438 107.03 199.935 107.339 199.624C115.382 191.548 126.282 187.47 134.321 190.16C136.135 190.775 137.653 191.65 139.256 192.897L139.729 193.275C140.15 193.631 142.27 195.438 142.85 195.845C144.033 196.675 144.984 196.949 146.121 196.707C147.773 196.362 148.631 195.333 149.785 192.621L150.194 191.626L150.554 190.745C151.794 187.772 152.962 186.066 155.018 184.899C157.415 183.546 160.101 183.622 163.336 184.879L164.562 185.382C165.629 185.833 166.336 186.199 168.477 187.488L173.172 190.355C181.907 195.71 187.227 197.577 193.251 196.126C196.278 195.396 198.024 194.27 200.87 191.533L201.758 190.665C205.71 186.766 208.204 185.192 213.023 184.492C216.791 183.945 220.014 184.356 223.958 185.54L226.257 186.253C229.949 187.388 230.211 187.335 230.904 186.633C232.253 185.285 231.415 182.79 227.329 174.951L225.749 171.928L225.197 170.839C221.624 163.688 220.669 159.453 223.009 156.498Z" fill="#2DE6EA"/>
<path fill-rule="evenodd" clip-rule="evenodd" d="M260.291 293.797H247.993L247.849 293.808C247.292 293.91 246.925 294.361 246.925 294.885C246.925 295.482 247.399 295.974 247.993 295.974H260.291L260.435 295.963C260.992 295.86 261.359 295.409 261.359 294.885C261.359 294.288 260.885 293.797 260.291 293.797Z" fill="#0F0A39"/>
<path fill-rule="evenodd" clip-rule="evenodd" d="M374.305 293.714H329.783L329.636 293.725C329.071 293.824 328.688 294.273 328.688 294.803C328.688 295.406 329.18 295.891 329.783 295.891H374.305L374.452 295.88C375.017 295.781 375.4 295.333 375.4 294.803C375.4 294.2 374.908 293.714 374.305 293.714Z" fill="#0F0A39"/>
<path fill-rule="evenodd" clip-rule="evenodd" d="M218.816 293.803L218.691 293.797L131.161 294.241C130.571 294.245 130.095 294.726 130.099 295.316C130.102 295.907 130.584 296.382 131.173 296.378L141.675 296.318L218.704 295.934C219.294 295.931 219.77 295.45 219.766 294.859C219.763 294.311 219.348 293.862 218.816 293.803Z" fill="#0F0A39"/>
<path fill-rule="evenodd" clip-rule="evenodd" d="M221.127 303.983C220.383 306.996 219.638 310.008 218.855 312.982C205.814 307.504 194.613 309.226 191.558 314.742C191.009 315.72 189.835 318.459 191.636 323.545C207.968 323.271 224.338 323.037 240.67 322.763C240.67 317.168 240.67 311.534 240.67 305.939C234.168 305.274 227.628 304.648 221.127 303.983Z" fill="#0F0A39"/>
<path fill-rule="evenodd" clip-rule="evenodd" d="M269.878 164.478L269.714 164.513L269.793 164.502C269.249 164.593 268.667 164.95 268.27 165.391L268.147 165.539C267.722 166.091 267.581 166.767 267.646 167.67L267.684 167.84L267.686 167.891L267.704 168.033L267.729 168.152L267.733 168.173C267.83 168.721 268.271 169.092 268.789 169.092C269.379 169.092 269.857 168.614 269.857 168.024L269.852 167.904L269.837 167.79L269.805 167.647L269.813 167.637L269.801 167.531L269.77 167.387L269.768 167.353C269.758 167.047 269.798 166.888 269.857 166.822L269.909 166.77C269.948 166.734 269.997 166.695 270.051 166.656L270.124 166.607L270.278 166.579C271.292 166.449 273.312 168.42 275.369 171.65L275.675 172.134L275.926 172.552C276.044 172.755 276.161 172.964 276.29 173.203L276.738 174.045C277.019 174.567 277.667 174.761 278.186 174.482C278.668 174.222 278.87 173.644 278.672 173.146L278.591 172.979L278.341 172.508L277.973 171.829L277.705 171.364L277.533 171.077L276.784 169.906C274.233 166.05 271.999 164.119 269.878 164.478Z" fill="#0F0A39"/>
<path fill-rule="evenodd" clip-rule="evenodd" d="M264.252 174.705C263.24 176.536 263.295 178.788 264.397 180.561C265.095 181.668 266.095 182.446 267.327 182.889C267.993 183.129 268.685 183.256 269.22 183.256C269.81 183.256 270.288 182.777 270.288 182.187C270.288 181.596 269.81 181.118 269.22 181.118C268.074 181.118 266.905 180.532 266.207 179.426C265.561 178.387 265.49 177.07 266.009 175.959L266.121 175.74C266.407 175.223 266.219 174.573 265.703 174.287C265.187 174.002 264.538 174.189 264.252 174.705Z" fill="#0F0A39"/>
<path fill-rule="evenodd" clip-rule="evenodd" d="M265.485 180.652C265.013 181.596 264.874 182.792 265.171 183.941C265.455 184.991 266.077 185.855 266.978 186.516C267.477 186.882 268.092 187.193 268.492 187.293C269.064 187.435 269.643 187.088 269.786 186.515C269.919 185.983 269.629 185.445 269.128 185.256L269.009 185.219C268.309 185.044 267.474 184.272 267.235 183.394C267.093 182.84 267.138 182.244 267.32 181.777L267.395 181.609C267.659 181.081 267.445 180.438 266.917 180.174C266.39 179.911 265.749 180.124 265.485 180.652Z" fill="#0F0A39"/>
<path fill-rule="evenodd" clip-rule="evenodd" d="M267.122 184.058L267.073 184.053C266.561 184.031 266.101 184.378 265.986 184.884C265.631 186.441 265.795 187.974 266.533 189.254C266.824 189.772 267.174 190.176 267.854 190.807L268.131 191.062L268.451 191.344C269.07 191.875 269.63 192.286 270.132 192.578C270.641 192.875 271.294 192.703 271.592 192.194C271.889 191.684 271.717 191.029 271.207 190.731C270.766 190.475 270.225 190.066 269.616 189.525L268.986 188.935C268.692 188.643 268.521 188.432 268.388 188.196C267.933 187.405 267.83 186.404 268.068 185.358C268.199 184.782 267.839 184.21 267.264 184.079L267.122 184.058Z" fill="#0F0A39"/>
<path fill-rule="evenodd" clip-rule="evenodd" d="M284.314 183.254C283.78 183.505 283.551 184.142 283.802 184.677C283.997 185.091 284.184 185.534 284.401 186.1L284.629 186.707C285.561 189.373 286.011 192.139 286.011 195.02C286.011 195.61 286.49 196.088 287.079 196.088C287.669 196.088 288.147 195.61 288.147 195.02C288.147 191.901 287.658 188.897 286.638 185.981L286.414 185.384C286.166 184.735 285.957 184.238 285.734 183.766C285.483 183.232 284.847 183.003 284.314 183.254Z" fill="#0F0A39"/>
<path fill-rule="evenodd" clip-rule="evenodd" d="M261.028 168.711C260.905 168.772 260.796 168.848 260.685 168.945L260.464 169.159L260.372 169.259C260.279 169.37 260.214 169.469 260.159 169.58C259.843 170.286 259.726 170.952 259.821 171.618C260.018 172.996 260.988 173.931 263.243 175.078L263.818 175.362C266.064 176.421 267.835 177.13 269.881 177.769C270.444 177.944 271.043 177.631 271.219 177.068C271.395 176.504 271.081 175.904 270.518 175.728C268.572 175.121 266.888 174.447 264.741 173.435L264.249 173.192C262.623 172.37 262.009 171.828 261.936 171.315L261.924 171.165L261.929 171.055C261.941 170.937 261.973 170.796 262.027 170.647L262.045 170.6L262.083 170.563L262.11 170.547C262.557 170.214 262.692 169.653 262.46 169.189C262.196 168.661 261.555 168.448 261.028 168.711Z" fill="#0F0A39"/>
<path fill-rule="evenodd" clip-rule="evenodd" d="M312.394 173.67C317.921 170.485 324.38 171.081 327.998 175.165L328.2 175.399L328.417 175.67C330.113 177.865 330.824 180.708 330.444 183.595C330.444 183.887 330.409 184.074 330.292 184.308C330.028 184.836 329.387 185.049 328.86 184.786C328.434 184.573 328.207 184.11 328.296 183.618L328.31 183.554L328.317 183.459C328.616 181.138 328.132 178.975 326.946 177.276L326.753 177.012L326.558 176.767C323.683 173.313 318.223 172.778 313.462 175.522C312.817 175.894 312.165 176.354 311.489 176.91C306.506 180.993 305.245 187.605 308.578 191.636C310.116 193.486 312.416 194.529 315.117 194.612L315.39 194.615L315.526 194.586L315.669 194.577C316.144 194.577 316.554 194.889 316.694 195.368L316.726 195.503L316.737 195.645L316.737 196.192L316.744 196.478L316.771 197.167C316.774 197.279 316.776 197.375 316.776 197.484C316.776 198.075 316.297 198.553 315.708 198.553C315.16 198.553 314.709 198.141 314.647 197.615L314.64 197.492L314.637 197.262L314.617 196.733L314.395 196.718C311.613 196.487 309.175 195.381 307.394 193.517L307.156 193.258L306.935 193.001C302.802 188.004 304.271 180.062 310.134 175.258C310.897 174.63 311.644 174.104 312.394 173.67ZM328.299 190.043C328.844 189.992 329.331 190.361 329.442 190.885L329.46 191.005L330.087 197.386C330.141 197.974 329.709 198.494 329.122 198.549C328.577 198.599 328.089 198.23 327.979 197.709L327.96 197.586L327.334 191.206C327.279 190.618 327.711 190.097 328.299 190.043ZM328.896 183.128L328.766 183.079L328.523 183.205C328.419 183.263 328.414 183.277 328.4 183.32L328.382 183.351L329.339 183.778L329.352 183.726L329.36 183.614L329.362 183.525L329.375 183.406L329.372 183.39C329.355 183.337 329.314 183.301 329.197 183.248L328.896 183.128Z" fill="#0F0A39"/>
<path fill-rule="evenodd" clip-rule="evenodd" d="M329.298 182.722C328.828 182.722 328.402 182.779 327.909 182.92C327.035 183.196 326.309 183.698 325.713 184.406C325.319 184.874 325.067 185.294 324.798 185.899C324.558 186.439 324.801 187.071 325.34 187.311C325.878 187.55 326.509 187.308 326.749 186.769C326.937 186.345 327.094 186.082 327.346 185.783C327.685 185.38 328.075 185.108 328.524 184.966C328.79 184.891 329.026 184.86 329.298 184.86C330.745 184.86 331.951 186.064 331.951 187.508C331.951 188.952 330.745 190.156 329.298 190.156C329.131 190.156 328.969 190.14 328.826 190.112L328.69 190.08C328.124 189.918 327.533 190.246 327.371 190.813C327.208 191.381 327.537 191.973 328.104 192.135C328.471 192.24 328.881 192.293 329.298 192.293C331.924 192.293 334.087 190.133 334.087 187.508C334.087 184.883 331.924 182.722 329.298 182.722Z" fill="#0F0A39"/>
<path fill-rule="evenodd" clip-rule="evenodd" d="M329.415 183.791C329.259 183.791 329.102 183.791 328.867 183.791C328.789 183.791 328.554 183.83 328.201 183.948C328.045 183.987 327.575 184.182 327.066 184.574C326.4 185.082 325.969 185.669 325.734 186.099C324.716 183.439 323.658 180.778 322.64 178.118L312.888 174.597C318.214 171.623 324.285 172.484 327.34 176.083C329.846 178.979 329.494 182.813 329.415 183.791Z" fill="#0F0A39"/>
<path fill-rule="evenodd" clip-rule="evenodd" d="M315.747 197.054C316.491 196.976 317.314 196.781 318.175 196.507C321.778 195.333 324.05 192.868 325.186 191.42C324.363 192.125 323.306 192.868 321.974 193.533C319.468 194.824 317.157 195.216 315.59 195.372C315.629 195.959 315.708 196.507 315.747 197.054Z" fill="#0F0A39"/>
<path fill-rule="evenodd" clip-rule="evenodd" d="M251.991 243.447C251.402 243.489 250.959 244 251.001 244.589L251.044 245.123C251.061 245.31 251.079 245.507 251.101 245.718L251.346 247.908L251.842 251.866L252.067 253.578C252.21 254.658 252.345 255.633 252.487 256.621L253.31 262.209L253.569 263.931L253.949 266.391L254.033 267.016L254.54 270.321L254.789 271.903C256.273 281.238 257.531 287.762 258.919 293.272L259.258 294.588C262.697 307.527 267.303 315.234 274.768 320.321C278.592 322.93 282.935 324.638 287.662 325.473C289.277 325.758 290.877 325.929 292.439 325.99C293.171 326.019 293.826 326.023 294.445 326.005L295.001 325.982C303.069 325.448 310.382 321.77 316.813 315.3C318.946 313.155 320.888 310.788 322.615 308.264C323.208 307.397 323.754 306.544 324.248 305.712L324.541 305.211C324.633 305.052 324.72 304.898 324.804 304.747L325.029 304.335C325.31 303.81 325.113 303.162 324.593 302.884C324.073 302.606 323.426 302.802 323.148 303.322L322.853 303.859C322.802 303.949 322.75 304.041 322.696 304.136L322.411 304.622C321.941 305.412 321.42 306.227 320.853 307.057C319.198 309.475 317.338 311.742 315.299 313.793C309.225 319.903 302.382 323.352 294.881 323.848C294.36 323.876 293.813 323.885 293.205 323.874L292.517 323.855C291.056 323.797 289.553 323.637 288.033 323.368C283.6 322.585 279.537 320.989 275.971 318.554C268.976 313.788 264.634 306.499 261.323 294.044L260.986 292.737C259.539 286.986 258.228 280.078 256.65 269.991L256.177 266.926L256.071 266.148L255.553 262.762C255.509 262.476 255.466 262.186 255.422 261.893L254.495 255.567L254.179 253.257C254.092 252.604 254.001 251.908 253.903 251.144L253.518 248.096L253.263 245.86L253.186 245.096L253.131 244.431C253.093 243.889 252.649 243.469 252.115 243.445L251.991 243.447Z" fill="#0F0A39"/>
<path fill-rule="evenodd" clip-rule="evenodd" d="M248.498 208.454C241.732 209.923 236.517 216.232 232.115 227.904L231.78 228.807C228.952 236.532 226.864 244.651 223.363 261.377L222.039 267.772C220.253 276.621 218.789 285.436 217.64 294.179L217.45 295.65L217.232 297.416C217.123 298.311 217.015 299.23 216.905 300.188L216.541 303.475C216.477 304.066 216.904 304.594 217.493 304.654L240.751 306.979L243.84 307.283L244.905 307.393C245.434 307.45 245.926 307.105 246.054 306.585L256.04 266.486C256.183 265.915 255.836 265.334 255.264 265.19C254.692 265.047 254.112 265.394 253.968 265.966L246.957 294.059L244.201 305.171L218.779 302.635L219.028 300.431L219.244 298.573C219.316 297.968 219.388 297.376 219.46 296.791L219.758 294.456C220.9 285.763 222.357 276.996 224.132 268.199L224.87 264.617C228.695 246.162 230.771 237.923 233.552 230.184L233.903 229.221C238.098 217.863 242.934 211.849 248.964 210.54C249.881 210.329 250.726 210.252 251.819 210.299C253.619 210.378 255.596 210.824 257.749 211.665C260.075 212.588 262.299 213.892 264.486 215.617C264.949 215.982 265.62 215.903 265.985 215.44C266.351 214.977 266.272 214.304 265.808 213.938C263.641 212.229 261.427 210.897 259.109 209.914L258.528 209.675C254.535 208.116 251.393 207.787 248.498 208.454Z" fill="#0F0A39"/>
<path fill-rule="evenodd" clip-rule="evenodd" d="M250.261 222.649C241.091 224.383 234.775 247.86 230.338 291.721L229.847 296.662C229.575 299.479 229.34 302.208 229.148 304.763C229.104 305.352 229.545 305.865 230.133 305.909C230.721 305.953 231.234 305.512 231.278 304.924C231.497 302.011 231.772 298.874 232.093 295.643L232.458 291.989L232.715 289.497C236.95 249.159 243.123 226.174 250.659 224.749C252.2 224.455 253.778 224.528 255.309 224.928C255.653 225.018 255.953 225.113 256.179 225.2L256.348 225.269C260.105 226.92 262.376 231.229 263.795 239.189C263.928 239.934 264.055 240.714 264.185 241.584L264.341 242.655L265.241 249.253C268.801 274.981 271.328 285.531 276.238 294.554L276.676 295.345C279.119 299.653 282.045 302.845 285.473 304.899C288.049 306.413 290.505 307.179 293.1 307.395C300.711 307.941 307.701 303.46 314.057 294.959L314.215 294.733L314.284 294.655C314.607 294.192 314.559 293.617 314.191 293.25C313.775 292.833 313.099 292.833 312.682 293.25C312.604 293.328 312.532 293.414 312.456 293.518L312.318 293.719L311.762 294.448C306.013 301.856 299.778 305.731 293.265 305.264C291.001 305.076 288.845 304.402 286.563 303.061C283.35 301.136 280.585 298.049 278.264 293.806L277.965 293.255C273.17 284.315 270.693 273.508 267.024 246.539L266.647 243.74L266.377 241.802L266.217 240.735C266.137 240.223 266.059 239.741 265.979 239.275L265.808 238.318C264.253 229.963 261.678 225.277 257.196 223.307C256.969 223.206 256.649 223.091 256.279 222.981L255.849 222.861C254.016 222.381 252.122 222.293 250.261 222.649Z" fill="#0F0A39"/>
<path fill-rule="evenodd" clip-rule="evenodd" d="M300.414 281.794C300.166 281.95 299.826 282.211 299.456 282.538C298.752 283.159 298.089 283.892 297.49 284.723C295.576 287.38 294.596 290.614 294.667 294.339C294.759 297.932 295.802 301.819 297.828 306.013C298.084 306.544 298.722 306.766 299.253 306.51C299.784 306.254 300.008 305.615 299.751 305.083C297.854 301.155 296.886 297.561 296.802 294.291C296.74 291.035 297.581 288.252 299.223 285.973C299.728 285.272 300.284 284.657 300.868 284.141C301.154 283.889 301.406 283.695 301.551 283.603C302.051 283.289 302.201 282.628 301.886 282.128C301.571 281.63 300.912 281.48 300.414 281.794Z" fill="#0F0A39"/>
<path fill-rule="evenodd" clip-rule="evenodd" d="M255.121 267.088C255.082 266.814 255.043 266.501 255.004 266.227C252.654 275.578 250.343 284.968 247.994 294.319C247.014 298.309 245.996 302.339 245.017 306.33C243.568 306.173 242.158 306.056 240.709 305.9L243.059 294.319L252.458 248.229L255.121 267.088Z" fill="#0F0A39"/>
<path d="M289.683 255.022C274.526 262.455 268.73 259.247 266.968 257.917C255.923 249.701 264.618 217.462 265.675 213.588C276.954 222.509 284.826 240.467 289.683 255.022Z" fill="#7C37FA"/>
<path d="M329.337 294.319C327.183 300.188 325.577 304.061 325.264 304.765L325.225 304.726C321.426 301.244 317.588 297.801 313.789 294.319C313.671 294.202 313.554 294.123 313.475 294.006C309.324 290.211 305.173 286.455 301.021 282.66C298.985 280.821 296.987 278.982 294.951 277.143C293.032 270.179 291.074 263.176 289.155 256.211C287.314 250.734 285.081 244.748 282.34 238.957C279.716 233.323 276.622 227.846 273.136 223.151C270.708 219.904 268.045 217.047 265.147 214.739C266.244 210.279 267.34 205.819 268.398 201.28C268.75 199.754 269.142 198.228 269.494 196.702C269.886 195.02 270.277 193.299 270.708 191.616C273.332 191.968 276.113 192.438 279.011 193.025C281.948 193.651 284.729 194.316 287.314 195.02C286.726 199.167 285.512 208.127 283.75 220.412C282.653 228.12 282.262 230.858 283.397 231.445C285.316 232.384 288.959 226.281 294.246 219.16C299.181 212.509 305.564 204.997 313.319 201.476V197.407H332.118V201.71C333.645 202.415 334.898 203.197 335.799 203.901C340.89 207.736 343.358 214.387 344.141 222.486C346.177 244.63 335.486 277.613 329.337 294.319Z" fill="#7C37FA"/>
<path fill-rule="evenodd" clip-rule="evenodd" d="M317.906 230.455C313.855 235.9 309.121 240.889 303.672 245.37C298.993 249.243 294.013 252.5 288.628 255.26C288.146 255.508 287.925 256.079 288.116 256.587L288.14 256.653L288.331 257.244L288.425 257.514C290.683 264.427 292.527 271.244 293.868 277.41C293.994 277.986 294.563 278.352 295.138 278.227C295.715 278.101 296.081 277.532 295.955 276.955L295.695 275.778C294.363 269.854 292.592 263.391 290.444 256.818L290.415 256.739L290.537 256.676C295.702 253.95 300.505 250.765 305.031 247.019C310.613 242.429 315.465 237.314 319.619 231.731C319.972 231.258 319.873 230.587 319.399 230.235C318.926 229.884 318.258 229.982 317.906 230.455Z" fill="#0F0A39"/>
<path fill-rule="evenodd" clip-rule="evenodd" d="M323.053 293.922C323.271 293.371 323.895 293.102 324.445 293.321C324.889 293.497 325.157 293.941 325.111 294.44L325.091 294.578L325.048 294.715L323.168 299.45C322.949 300.001 322.325 300.27 321.775 300.052C321.331 299.875 321.063 299.431 321.109 298.932L321.13 298.794L321.173 298.657L323.053 293.922ZM310.798 288.678C311.097 288.306 311.599 288.181 312.029 288.351L312.145 288.405L312.187 288.43L312.306 288.512L317.24 292.463C317.704 292.834 317.778 293.511 317.407 293.974C317.108 294.346 316.606 294.471 316.143 294.281L316.018 294.222L315.899 294.14L310.964 290.189C310.501 289.818 310.426 289.141 310.798 288.678ZM325.26 280.722C325.704 280.547 326.202 280.686 326.492 281.048L326.566 281.152L326.59 281.194L326.653 281.324L328.533 286.058C328.752 286.61 328.482 287.235 327.931 287.453C327.487 287.629 326.989 287.49 326.681 287.095L326.601 286.981L326.538 286.851L324.658 282.117C324.439 281.565 324.709 280.941 325.26 280.722ZM318.979 276.59C319.198 276.039 319.822 275.77 320.372 275.988C320.816 276.164 321.084 276.608 321.038 277.108L321.018 277.245L320.974 277.383L319.095 282.117C318.876 282.668 318.252 282.937 317.702 282.719C317.258 282.543 316.99 282.099 317.036 281.599L317.056 281.462L317.1 281.324L318.979 276.59ZM307.908 276.494C308.309 276.058 308.987 276.029 309.423 276.43C309.775 276.753 309.867 277.264 309.645 277.714L309.577 277.835L309.488 277.948L305.532 282.252C305.131 282.688 304.453 282.717 304.017 282.317C303.664 281.993 303.573 281.483 303.794 281.032L303.863 280.911L303.952 280.798L307.908 276.494ZM294.159 269.539C294.461 269.169 294.964 269.048 295.393 269.223L295.508 269.277L295.55 269.303L295.668 269.385L300.564 273.376C301.024 273.751 301.092 274.429 300.717 274.888C300.415 275.258 299.912 275.379 299.451 275.185L299.326 275.124L299.208 275.041L294.312 271.051C293.852 270.676 293.784 269.998 294.159 269.539ZM331.935 271.14C332.527 271.125 333.019 271.593 333.034 272.187C333.046 272.665 332.742 273.085 332.265 273.238L332.131 273.273L331.988 273.287L325.682 273.443C325.09 273.458 324.598 272.99 324.583 272.397C324.571 271.919 324.875 271.499 325.352 271.346L325.486 271.311L325.629 271.296L331.935 271.14ZM308.372 267.743C308.673 267.372 309.175 267.249 309.605 267.421L309.72 267.475L309.762 267.501L309.881 267.582L314.776 271.534C315.238 271.907 315.31 272.584 314.937 273.045C314.637 273.417 314.134 273.54 313.672 273.348L313.547 273.288L313.428 273.206L308.533 269.254C308.071 268.881 307.999 268.204 308.372 267.743ZM319.895 261.669C320.338 261.493 320.837 261.632 321.127 261.994L321.201 262.098L321.225 262.141L321.288 262.27L323.168 267.005C323.387 267.556 323.117 268.181 322.565 268.399C322.122 268.575 321.624 268.436 321.315 268.041L321.236 267.927L321.173 267.798L319.293 263.063C319.074 262.512 319.344 261.887 319.895 261.669ZM338.537 263.94L338.662 263.944C339.198 263.984 339.63 264.421 339.652 264.971C339.674 265.522 339.278 265.992 338.742 266.075L338.616 266.088L337.367 266.122L335.817 266.161L335.685 266.166C335.094 266.189 334.594 265.729 334.57 265.136C334.548 264.585 334.944 264.115 335.478 264.032L335.603 264.02L336.152 264.001L338.406 263.946L338.537 263.94ZM328.611 256.6C329.081 256.521 329.539 256.761 329.748 257.176L329.798 257.293L329.813 257.34L329.847 257.48L330.905 263.74C331.004 264.325 330.609 264.879 330.025 264.978C329.554 265.057 329.096 264.817 328.876 264.366L328.823 264.238L328.788 264.098L327.731 257.838C327.632 257.253 328.026 256.699 328.611 256.6ZM303.707 258.042C303.927 257.492 304.551 257.224 305.101 257.444C305.545 257.621 305.811 258.066 305.764 258.566L305.743 258.703L305.699 258.841L303.819 263.536C303.599 264.086 302.975 264.353 302.425 264.134C301.981 263.956 301.715 263.512 301.762 263.012L301.783 262.875L301.827 262.737L303.707 258.042ZM312.862 252.36C313.342 252.36 313.76 252.67 313.905 253.153L313.937 253.288L313.948 253.433V259.772C313.948 260.368 313.459 260.846 312.862 260.846C312.382 260.846 311.964 260.535 311.819 260.052L311.787 259.917L311.776 259.772V253.433C311.776 252.837 312.265 252.36 312.862 252.36ZM268.045 254.637C268.259 254.084 268.881 253.811 269.433 254.025C269.878 254.198 270.149 254.64 270.107 255.14L270.087 255.278L270.045 255.416L268.204 260.15C267.99 260.702 267.368 260.976 266.816 260.762C266.371 260.589 266.1 260.147 266.142 259.647L266.162 259.509L266.204 259.371L268.045 254.637ZM282.739 253.588C282.954 253.035 283.575 252.762 284.128 252.976C284.573 253.149 284.844 253.591 284.801 254.091L284.782 254.229L284.74 254.367L282.899 259.101C282.684 259.653 282.063 259.927 281.51 259.713C281.065 259.54 280.794 259.098 280.837 258.598L280.856 258.46L280.898 258.322L282.739 253.588ZM334.722 250.759C335.162 250.576 335.663 250.707 335.959 251.064L336.034 251.167L336.059 251.209L336.124 251.338L338.552 257.168C338.781 257.716 338.521 258.345 337.974 258.572C337.533 258.756 337.033 258.624 336.717 258.235L336.636 258.123L336.571 257.994L334.143 252.164C333.914 251.616 334.174 250.987 334.722 250.759ZM294.2 250.672C294.601 250.236 295.279 250.207 295.716 250.607C296.068 250.931 296.159 251.441 295.938 251.892L295.87 252.013L295.78 252.126L291.825 256.43C291.424 256.866 290.746 256.895 290.309 256.494C289.957 256.171 289.866 255.66 290.087 255.21L290.155 255.089L290.245 254.976L294.2 250.672ZM319.425 247.818C319.868 247.643 320.367 247.782 320.657 248.144L320.731 248.248L320.755 248.29L320.818 248.42L322.698 253.154C322.917 253.706 322.647 254.331 322.095 254.549C321.652 254.725 321.154 254.585 320.845 254.191L320.766 254.077L320.703 253.947L318.823 249.213C318.604 248.661 318.874 248.037 319.425 247.818ZM327.282 246.66C327.501 246.109 328.125 245.839 328.675 246.058C329.119 246.234 329.387 246.678 329.341 247.177L329.32 247.315L329.277 247.453L327.397 252.187C327.179 252.738 326.555 253.007 326.005 252.789C325.56 252.613 325.293 252.169 325.339 251.669L325.359 251.531L325.402 251.394L327.282 246.66ZM276.441 246.246C276.656 245.693 277.278 245.419 277.83 245.634C278.275 245.807 278.546 246.249 278.504 246.749L278.484 246.886L278.442 247.024L276.601 251.758C276.386 252.311 275.765 252.584 275.213 252.37C274.768 252.197 274.497 251.755 274.539 251.255L274.559 251.118L274.601 250.98L276.441 246.246ZM299.409 243.711C299.852 243.534 300.351 243.672 300.642 244.033L300.716 244.137L300.74 244.18L300.804 244.309L302.684 249.004C302.904 249.555 302.636 250.181 302.085 250.401C301.643 250.578 301.144 250.44 300.834 250.046L300.754 249.933L300.691 249.803L298.811 245.108C298.59 244.557 298.859 243.931 299.409 243.711ZM334.703 240.696C335.148 240.522 335.645 240.664 335.934 241.027L336.007 241.131L336.031 241.174L336.094 241.304L337.934 245.999C338.151 246.552 337.878 247.175 337.326 247.391C336.882 247.565 336.384 247.423 336.077 247.027L335.998 246.913L335.936 246.783L334.095 242.088C333.878 241.535 334.151 240.912 334.703 240.696ZM308.608 241.372C308.909 241.001 309.411 240.878 309.841 241.051L309.956 241.105L309.998 241.131L310.117 241.213L315.051 245.204C315.513 245.577 315.584 246.254 315.21 246.715C314.91 247.086 314.407 247.209 313.945 247.016L313.82 246.956L313.702 246.874L308.767 242.883C308.306 242.51 308.234 241.833 308.608 241.372ZM265.945 238.903C266.16 238.351 266.782 238.077 267.334 238.291C267.779 238.464 268.05 238.906 268.008 239.406L267.988 239.544L267.946 239.682L266.105 244.416C265.89 244.969 265.269 245.242 264.717 245.028C264.271 244.855 264.001 244.413 264.043 243.913L264.062 243.775L264.105 243.637L265.945 238.903ZM294.2 237.565C294.601 237.129 295.279 237.1 295.716 237.501C296.068 237.824 296.159 238.335 295.938 238.785L295.87 238.906L295.78 239.019L291.825 243.323C291.424 243.759 290.746 243.788 290.309 243.387C289.957 243.064 289.866 242.553 290.087 242.103L290.155 241.982L290.245 241.869L294.2 237.565ZM320.835 235.963C321.278 235.788 321.777 235.927 322.067 236.289L322.141 236.393L322.165 236.436L322.228 236.565L324.108 241.299C324.327 241.851 324.057 242.476 323.505 242.694C323.062 242.87 322.564 242.731 322.255 242.336L322.176 242.222L322.113 242.093L320.233 237.358C320.014 236.807 320.284 236.182 320.835 235.963ZM283.195 236.431C283.595 235.995 284.273 235.965 284.71 236.365C285.063 236.688 285.154 237.199 284.933 237.649L284.865 237.771L284.776 237.884L282.191 240.701C281.79 241.137 281.112 241.167 280.676 240.767C280.323 240.444 280.231 239.933 280.452 239.483L280.52 239.361L280.61 239.248L283.195 236.431ZM337.986 234.91C338.289 234.541 338.793 234.423 339.222 234.598L339.336 234.654L339.378 234.679L339.496 234.762L344.117 238.558C344.576 238.934 344.642 239.612 344.265 240.07C343.962 240.439 343.458 240.558 342.998 240.362L342.873 240.301L342.755 240.218L338.134 236.423C337.675 236.046 337.609 235.368 337.986 234.91ZM304.931 232.714C305.332 232.278 306.01 232.249 306.447 232.649C306.799 232.972 306.89 233.483 306.669 233.933L306.601 234.054L306.511 234.168L302.556 238.471C302.155 238.907 301.477 238.936 301.04 238.536C300.688 238.213 300.597 237.702 300.818 237.252L300.886 237.131L300.976 237.017L304.931 232.714ZM330.178 231.838C330.392 231.286 331.014 231.012 331.566 231.227C332.011 231.399 332.282 231.841 332.24 232.341L332.22 232.479L332.178 232.617L330.337 237.351C330.123 237.904 329.501 238.177 328.949 237.963C328.504 237.79 328.233 237.348 328.275 236.848L328.295 236.711L328.337 236.573L330.178 231.838ZM274.342 230.512C274.557 229.959 275.179 229.686 275.731 229.9C276.176 230.073 276.447 230.515 276.404 231.015L276.385 231.152L276.343 231.29L274.502 236.025C274.287 236.577 273.666 236.851 273.114 236.636C272.668 236.464 272.397 236.021 272.44 235.521L272.459 235.384L272.501 235.246L274.342 230.512ZM314.957 229.545C315.358 229.108 316.036 229.08 316.473 229.48C316.825 229.803 316.916 230.314 316.695 230.764L316.627 230.885L316.537 230.998L312.582 235.302C312.181 235.738 311.503 235.767 311.066 235.367C310.714 235.044 310.623 234.533 310.844 234.083L310.912 233.961L311.002 233.848L314.957 229.545ZM293.875 227.528C294.094 226.976 294.718 226.707 295.268 226.926C295.712 227.102 295.98 227.546 295.934 228.045L295.913 228.183L295.87 228.321L293.99 233.055C293.772 233.606 293.148 233.875 292.598 233.657C292.154 233.481 291.886 233.036 291.932 232.537L291.952 232.399L291.995 232.262L293.875 227.528ZM263.846 225.267C264.061 224.715 264.683 224.441 265.235 224.655C265.68 224.828 265.951 225.27 265.908 225.77L265.889 225.908L265.847 226.046L264.006 230.78C263.791 231.333 263.17 231.606 262.618 231.392C262.172 231.219 261.901 230.777 261.944 230.277L261.963 230.139L262.005 230.001L263.846 225.267ZM336.54 223.913C336.983 223.737 337.481 223.877 337.772 224.238L337.845 224.342L337.869 224.385L337.933 224.515L339.812 229.249C340.032 229.801 339.761 230.425 339.21 230.644C338.767 230.82 338.268 230.68 337.96 230.286L337.88 230.172L337.817 230.042L335.938 225.308C335.718 224.756 335.988 224.131 336.54 223.913ZM320.869 224.232C321.171 223.862 321.674 223.742 322.103 223.916L322.218 223.971L322.26 223.996L322.378 224.079L327.274 228.07C327.734 228.445 327.802 229.122 327.427 229.582C327.125 229.951 326.622 230.072 326.161 229.878L326.036 229.817L325.918 229.735L321.022 225.744C320.562 225.369 320.494 224.692 320.869 224.232ZM305.155 221.463C305.373 220.912 305.997 220.643 306.547 220.861C306.991 221.037 307.259 221.481 307.213 221.981L307.193 222.118L307.15 222.256L305.27 226.99C305.051 227.541 304.427 227.81 303.877 227.592C303.433 227.416 303.165 226.972 303.211 226.472L303.232 226.335L303.275 226.197L305.155 221.463ZM272.693 222.039C273.09 221.6 273.768 221.565 274.208 221.962C274.563 222.282 274.659 222.792 274.441 223.244L274.374 223.366L274.285 223.48L272.836 225.084C272.439 225.523 271.761 225.558 271.322 225.161C270.966 224.841 270.871 224.331 271.088 223.879L271.155 223.757L271.244 223.644L272.693 222.039ZM339.765 219.21C340.098 218.776 340.697 218.667 341.157 218.936L341.269 219.012L344.794 221.711C345.265 222.072 345.354 222.747 344.993 223.218C344.66 223.652 344.061 223.761 343.601 223.492L343.489 223.417L339.964 220.717C339.493 220.356 339.404 219.681 339.765 219.21ZM331.59 216.729C331.809 216.178 332.433 215.909 332.983 216.127C333.427 216.303 333.695 216.747 333.649 217.247L333.628 217.384L333.585 217.522L331.705 222.256C331.487 222.807 330.863 223.076 330.313 222.858C329.869 222.682 329.601 222.238 329.647 221.738L329.667 221.601L329.71 221.463L331.59 216.729ZM312.793 215.592C313.013 215.041 313.637 214.774 314.187 214.994C314.631 215.171 314.897 215.616 314.85 216.115L314.829 216.253L314.785 216.39L312.906 221.085C312.685 221.636 312.061 221.903 311.511 221.683C311.067 221.506 310.801 221.061 310.848 220.562L310.869 220.424L310.913 220.287L312.793 215.592ZM299.431 213.009C299.904 212.946 300.354 213.203 300.548 213.625L300.594 213.744L300.607 213.791L300.636 213.932L301.224 218.353C301.302 218.942 300.888 219.482 300.301 219.56C299.828 219.622 299.378 219.366 299.175 218.908L299.126 218.778L299.096 218.636L298.509 214.215C298.43 213.627 298.844 213.087 299.431 213.009ZM281.237 213.112C281.638 212.676 282.316 212.647 282.752 213.048C283.105 213.371 283.196 213.881 282.975 214.332L282.906 214.453L282.817 214.566L278.861 218.87C278.461 219.306 277.782 219.335 277.346 218.934C276.994 218.611 276.902 218.1 277.124 217.65L277.192 217.529L277.281 217.416L281.237 213.112ZM325.336 210.96C325.737 210.524 326.415 210.495 326.851 210.896C327.203 211.219 327.295 211.73 327.073 212.18L327.005 212.301L326.916 212.414L322.96 216.718C322.559 217.154 321.881 217.183 321.445 216.782C321.092 216.459 321.001 215.949 321.222 215.498L321.291 215.377L321.38 215.264L325.336 210.96ZM333.088 209.012C333.39 208.643 333.893 208.522 334.322 208.696L334.437 208.751L334.479 208.777L334.597 208.859L339.493 212.85C339.953 213.225 340.022 213.902 339.646 214.362C339.344 214.732 338.841 214.852 338.38 214.658L338.255 214.598L338.137 214.515L333.241 210.524C332.781 210.149 332.713 209.472 333.088 209.012ZM265.257 210.185C265.559 209.816 266.063 209.696 266.492 209.871L266.606 209.926L266.648 209.951L266.766 210.034L270.213 212.851C270.672 213.226 270.74 213.904 270.364 214.363C270.061 214.732 269.558 214.852 269.097 214.658L268.973 214.597L268.855 214.514L265.408 211.697C264.949 211.322 264.881 210.644 265.257 210.185ZM310.957 206.864C311.416 206.49 312.091 206.558 312.466 207.017C312.769 207.387 312.786 207.906 312.502 208.32L312.418 208.43L312.313 208.529L307.417 212.52C306.958 212.894 306.283 212.826 305.908 212.367C305.606 211.996 305.589 211.478 305.872 211.064L305.957 210.954L306.062 210.855L310.957 206.864ZM274.763 202.566C274.982 202.015 275.606 201.746 276.156 201.964C276.6 202.14 276.868 202.584 276.822 203.084L276.801 203.221L276.758 203.359L274.878 208.093C274.66 208.644 274.036 208.913 273.486 208.695C273.041 208.519 272.774 208.075 272.82 207.575L272.84 207.438L272.883 207.3L274.763 202.566ZM316.762 201.964C317.205 201.788 317.704 201.928 317.994 202.289L318.067 202.393L318.092 202.436L318.155 202.566L320.035 207.3C320.254 207.852 319.984 208.476 319.432 208.695C318.989 208.871 318.491 208.731 318.182 208.337L318.103 208.223L318.04 208.093L316.16 203.359C315.941 202.807 316.211 202.182 316.762 201.964ZM280.687 200.287C280.989 199.918 281.492 199.797 281.921 199.972L282.036 200.026L282.078 200.052L282.196 200.135L286.465 203.617C286.925 203.992 286.993 204.669 286.618 205.129C286.316 205.498 285.812 205.619 285.351 205.425L285.227 205.364L285.109 205.281L280.84 201.799C280.38 201.424 280.311 200.747 280.687 200.287ZM325.597 198.649C325.946 198.329 326.455 198.28 326.854 198.508L326.969 198.585L327.112 198.715L330.128 202.001C330.529 202.439 330.5 203.119 330.062 203.52C329.71 203.842 329.195 203.889 328.766 203.631L328.652 203.553L328.547 203.454L325.531 200.167C325.13 199.73 325.159 199.05 325.597 198.649ZM268.622 196.064C268.923 195.694 269.426 195.572 269.856 195.745L269.971 195.799L270.012 195.825L270.131 195.907L272.207 197.589C272.668 197.963 272.738 198.64 272.364 199.101C272.063 199.472 271.56 199.594 271.099 199.401L270.974 199.341L270.855 199.258L268.78 197.576C268.319 197.202 268.248 196.525 268.622 196.064Z" fill="#0F0A39"/>
<path fill-rule="evenodd" clip-rule="evenodd" d="M259.476 162.415C259.254 162.898 259.422 163.482 259.885 163.768L287.995 181.223L286.269 184.261L286.137 184.141L285.924 183.935L285.721 183.726L285.646 183.643L285.587 183.497C285.231 182.655 284.748 181.752 284.178 180.865C282.582 178.398 280.854 176.939 276.111 174.057L274.843 173.294L274.016 172.804C266.588 168.432 263.325 167.354 261.173 168.573L259.656 167.566C259.586 167.515 259.424 167.397 259.118 167.175L257.993 166.347C257.533 165.995 256.863 166.084 256.505 166.553C256.146 167.022 256.236 167.693 256.705 168.052L258.475 169.349L259.32 169.913L260.603 170.754C260.985 171.009 261.485 170.986 261.843 170.709L261.962 170.606L262.042 170.548C262.079 170.523 262.124 170.494 262.171 170.466L262.24 170.426C263.524 169.711 266.639 170.888 273.784 175.15L274.988 175.875L275.766 176.351C279.63 178.739 281.073 179.999 282.383 182.024C282.957 182.916 283.427 183.821 283.734 184.609L283.87 184.85L284.156 185.18C284.322 185.357 284.496 185.531 284.679 185.703L284.96 185.96C285.015 186.008 285.092 186.073 285.194 186.157L285.884 186.723L285.993 186.802C286.547 187.126 287.209 186.949 287.502 186.425L290.359 181.381C290.639 180.88 290.477 180.25 289.992 179.949L261.009 161.95C260.508 161.64 259.85 161.795 259.539 162.296L259.476 162.415Z" fill="#0F0A39"/>
<path fill-rule="evenodd" clip-rule="evenodd" d="M257.236 167.398C255.395 164.972 253.594 162.507 251.753 160.082C254.69 160.903 257.667 161.725 260.604 162.586C260.722 163.212 260.878 163.877 260.996 164.503C260.291 164.62 259.586 164.737 258.842 164.894C259.194 165.637 259.547 166.342 259.899 167.085C258.998 167.163 258.098 167.281 257.236 167.398Z" fill="#7C37FA"/>
<path fill-rule="evenodd" clip-rule="evenodd" d="M284.748 178.242L282.787 181.65C282.491 182.155 282.661 182.811 283.171 183.109C283.679 183.407 284.333 183.237 284.631 182.728L284.78 182.474L285.959 180.415L286.591 179.321C286.889 178.815 286.718 178.159 286.208 177.861C285.7 177.563 285.046 177.733 284.748 178.242Z" fill="#0F0A39"/>
</svg>
